<?xml version="1.0" encoding="utf-8"?>
<!-- Generator: Adobe Illustrator 24.2.3, SVG Export Plug-In . SVG Version: 6.00 Build 0)  -->
<svg version="1.1" id="Layer_1" xmlns="http://www.w3.org/2000/svg" xmlns:xlink="http://www.w3.org/1999/xlink" x="0px" y="0px"
	 viewBox="0 0 1066.667 600" style="enable-background:new 0 0 1066.667 600;" xml:space="preserve">
<style type="text/css">
	
		.st0{clip-path:url(#SVGID_2_);fill:none;stroke:#000000;stroke-width:0.96;stroke-linecap:round;stroke-linejoin:round;stroke-miterlimit:10;}
	
		.st1{opacity:0.6;clip-path:url(#SVGID_2_);fill:none;stroke:#000000;stroke-width:0.96;stroke-linecap:round;stroke-linejoin:round;stroke-miterlimit:10;}
	
		.st2{opacity:0.498;clip-path:url(#SVGID_2_);fill:none;stroke:#000000;stroke-width:0.96;stroke-linecap:round;stroke-linejoin:round;stroke-miterlimit:10;}
	.st3{clip-path:url(#SVGID_2_);}
	.st4{clip-path:url(#SVGID_2_);fill:none;stroke:#000000;stroke-width:0;stroke-linecap:round;stroke-miterlimit:10;}
	
		.st5{clip-path:url(#SVGID_2_);fill:none;stroke:#000000;stroke-width:0.12;stroke-linecap:round;stroke-linejoin:round;stroke-miterlimit:10;}
</style>
<g>
	<defs>
		<polyline id="SVGID_1_" points="69.793,502.72 951.433,502.72 951.433,-1.16 69.793,-1.16 69.793,502.72 		"/>
	</defs>
	<clipPath id="SVGID_2_">
		<use xlink:href="#SVGID_1_"  style="overflow:visible;"/>
	</clipPath>
	<polyline class="st0" points="465.913,305.48 479.473,305.48 479.473,306.32 465.673,306.32 	"/>
	<polyline class="st0" points="464.953,306.32 464.833,306.32 464.833,306.92 712.633,306.92 	"/>
	<line class="st0" x1="727.513" y1="306.92" x2="742.033" y2="306.92"/>
	<line class="st0" x1="464.833" y1="306.32" x2="465.913" y2="306.32"/>
	<line class="st0" x1="829.753" y1="279.08" x2="816.313" y2="279.08"/>
	<line class="st0" x1="813.433" y1="279.08" x2="813.433" y2="279.08"/>
	<line class="st0" x1="810.553" y1="279.08" x2="798.913" y2="279.08"/>
	<line class="st0" x1="796.033" y1="279.08" x2="796.033" y2="279.08"/>
	<line class="st0" x1="793.153" y1="279.08" x2="781.513" y2="279.08"/>
	<line class="st0" x1="778.633" y1="279.08" x2="778.633" y2="279.08"/>
	<line class="st0" x1="775.753" y1="279.08" x2="764.113" y2="279.08"/>
	<line class="st0" x1="761.233" y1="279.08" x2="761.233" y2="279.08"/>
	<line class="st0" x1="758.353" y1="279.08" x2="746.713" y2="279.08"/>
	<line class="st0" x1="743.833" y1="279.08" x2="743.833" y2="279.08"/>
	<line class="st0" x1="740.953" y1="279.08" x2="729.433" y2="279.08"/>
	<line class="st0" x1="726.433" y1="279.08" x2="726.433" y2="279.08"/>
	<line class="st0" x1="723.553" y1="279.08" x2="712.033" y2="279.08"/>
	<line class="st0" x1="709.153" y1="279.08" x2="709.153" y2="279.08"/>
	<line class="st0" x1="706.153" y1="279.08" x2="694.633" y2="279.08"/>
	<line class="st0" x1="691.753" y1="279.08" x2="691.753" y2="279.08"/>
	<line class="st0" x1="688.873" y1="279.08" x2="677.233" y2="279.08"/>
	<line class="st0" x1="674.353" y1="279.08" x2="674.353" y2="279.08"/>
	<line class="st0" x1="671.473" y1="279.08" x2="659.833" y2="279.08"/>
	<line class="st0" x1="656.953" y1="279.08" x2="656.953" y2="279.08"/>
	<line class="st0" x1="654.073" y1="279.08" x2="642.433" y2="279.08"/>
	<line class="st0" x1="639.553" y1="279.08" x2="639.553" y2="279.08"/>
	<line class="st0" x1="636.673" y1="279.08" x2="625.033" y2="279.08"/>
	<line class="st0" x1="622.153" y1="279.08" x2="622.153" y2="279.08"/>
	<line class="st0" x1="619.273" y1="279.08" x2="607.753" y2="279.08"/>
	<line class="st0" x1="604.753" y1="279.08" x2="604.753" y2="279.08"/>
	<line class="st0" x1="601.873" y1="279.08" x2="590.353" y2="279.08"/>
	<line class="st0" x1="587.473" y1="279.08" x2="587.473" y2="279.08"/>
	<line class="st0" x1="584.473" y1="279.08" x2="572.953" y2="279.08"/>
	<line class="st0" x1="570.073" y1="279.08" x2="570.073" y2="279.08"/>
	<line class="st0" x1="567.193" y1="278.96" x2="555.553" y2="278.96"/>
	<line class="st0" x1="552.673" y1="278.96" x2="552.673" y2="278.96"/>
	<line class="st0" x1="549.793" y1="278.96" x2="538.153" y2="278.96"/>
	<line class="st0" x1="535.273" y1="278.96" x2="535.273" y2="278.96"/>
	<line class="st0" x1="532.393" y1="278.96" x2="520.753" y2="278.96"/>
	<line class="st0" x1="517.873" y1="278.96" x2="517.873" y2="278.96"/>
	<line class="st0" x1="514.993" y1="278.96" x2="503.353" y2="278.96"/>
	<line class="st0" x1="500.473" y1="278.96" x2="500.473" y2="278.96"/>
	<line class="st0" x1="497.593" y1="278.96" x2="486.073" y2="278.96"/>
	<line class="st0" x1="483.073" y1="278.96" x2="483.073" y2="278.96"/>
	<line class="st0" x1="480.193" y1="278.96" x2="468.673" y2="278.96"/>
	<line class="st0" x1="465.793" y1="278.96" x2="465.793" y2="278.96"/>
	<line class="st0" x1="462.793" y1="278.96" x2="449.353" y2="278.96"/>
	<line class="st0" x1="443.833" y1="278.96" x2="429.073" y2="278.96"/>
	<line class="st0" x1="722.353" y1="308.24" x2="722.353" y2="295.64"/>
	<line class="st0" x1="722.353" y1="292.76" x2="722.353" y2="292.76"/>
	<line class="st0" x1="722.353" y1="289.88" x2="722.353" y2="278.24"/>
	<line class="st0" x1="722.353" y1="275.36" x2="722.353" y2="275.36"/>
	<line class="st0" x1="722.353" y1="272.48" x2="722.353" y2="260.84"/>
	<line class="st0" x1="722.353" y1="257.96" x2="722.353" y2="257.96"/>
	<line class="st0" x1="722.353" y1="255.08" x2="722.353" y2="242.48"/>
	<polyline class="st0" points="465.913,251.72 479.473,251.72 479.473,252.56 465.913,252.56 465.913,251.72 	"/>
	<polyline class="st0" points="506.353,251.72 520.033,251.72 520.033,252.56 506.353,252.56 506.353,251.72 	"/>
	<polyline class="st0" points="521.113,251.72 534.793,251.72 534.793,252.56 521.113,252.56 521.113,251.72 	"/>
	<polyline class="st0" points="561.673,251.72 575.233,251.72 575.233,252.56 561.673,252.56 561.673,251.72 	"/>
	<polyline class="st0" points="576.313,251.72 589.993,251.72 589.993,252.56 576.313,252.56 576.313,251.72 	"/>
	<polyline class="st0" points="616.873,251.72 630.553,251.72 630.553,252.56 616.873,252.56 616.873,251.72 	"/>
	<polyline class="st0" points="631.633,251.72 645.313,251.72 645.313,252.56 631.633,252.56 631.633,251.72 	"/>
	<polyline class="st0" points="672.193,251.72 685.753,251.72 685.753,252.56 672.193,252.56 672.193,251.72 	"/>
	<polyline class="st0" points="686.833,251.72 700.513,251.72 700.513,252.56 686.833,252.56 686.833,251.72 	"/>
	<polyline class="st0" points="727.633,251.72 741.193,251.72 741.193,252.56 727.633,252.56 727.633,251.72 	"/>
	<polyline class="st0" points="506.353,305.48 520.033,305.48 520.033,306.32 506.353,306.32 506.353,305.48 	"/>
	<polyline class="st0" points="521.113,305.48 534.793,305.48 534.793,306.32 521.113,306.32 521.113,305.48 	"/>
	<polyline class="st0" points="561.673,305.48 575.233,305.48 575.233,306.32 561.673,306.32 561.673,305.48 	"/>
	<polyline class="st0" points="576.313,305.48 589.993,305.48 589.993,306.32 576.313,306.32 576.313,305.48 	"/>
	<polyline class="st0" points="616.873,305.48 630.553,305.48 630.553,306.32 616.873,306.32 616.873,305.48 	"/>
	<polyline class="st0" points="631.633,305.48 645.313,305.48 645.313,306.32 631.633,306.32 631.633,305.48 	"/>
	<polyline class="st0" points="672.193,305.48 685.753,305.48 685.753,306.32 672.193,306.32 672.193,305.48 	"/>
	<polyline class="st0" points="686.833,305.48 700.513,305.48 700.513,306.32 686.833,306.32 686.833,305.48 	"/>
	<polyline class="st0" points="742.033,306.32 741.193,305.12 742.033,305.12 742.033,306.32 741.193,306.32 741.193,305.12 	"/>
	<line class="st0" x1="742.033" y1="305.12" x2="741.193" y2="306.32"/>
	<polyline class="st0" points="742.033,291.44 741.193,290.24 742.033,290.24 742.033,291.44 741.193,291.44 741.193,290.24 	"/>
	<line class="st0" x1="742.033" y1="290.24" x2="741.193" y2="291.44"/>
	<polyline class="st0" points="742.033,267.92 741.193,266.6 742.033,266.72 742.033,267.92 741.193,267.92 741.193,266.6 	"/>
	<line class="st0" x1="742.033" y1="266.72" x2="741.193" y2="267.92"/>
	<polyline class="st0" points="742.033,252.92 741.193,251.72 742.033,251.72 742.033,252.92 741.193,252.92 741.193,251.72 	"/>
	<line class="st0" x1="742.033" y1="251.72" x2="741.193" y2="252.92"/>
	<polyline class="st0" points="521.113,286.4 521.113,287.12 520.033,287.12 520.033,286.4 521.113,286.4 	"/>
	<polyline class="st0" points="465.913,251.72 464.833,251.72 464.833,251.12 742.033,251.12 742.033,251.72 	"/>
	<line class="st0" x1="742.033" y1="306.32" x2="742.033" y2="306.92"/>
	<line class="st0" x1="742.033" y1="305.12" x2="742.033" y2="252.92"/>
	<line class="st0" x1="464.833" y1="251.72" x2="464.833" y2="306.32"/>
	<line class="st0" x1="465.793" y1="271.64" x2="465.673" y2="271.64"/>
	<line class="st0" x1="464.953" y1="271.64" x2="464.833" y2="271.64"/>
	<line class="st0" x1="465.913" y1="252.92" x2="520.033" y2="252.92"/>
	<line class="st0" x1="521.113" y1="252.92" x2="575.233" y2="252.92"/>
	<line class="st0" x1="520.033" y1="251.72" x2="520.033" y2="306.32"/>
	<line class="st0" x1="521.113" y1="306.32" x2="521.113" y2="251.72"/>
	<line class="st0" x1="465.913" y1="256.16" x2="520.033" y2="256.16"/>
	<polyline class="st0" points="465.673,286.4 465.913,286.4 465.913,306.32 	"/>
	<line class="st0" x1="464.953" y1="286.4" x2="464.833" y2="286.4"/>
	<line class="st0" x1="465.793" y1="271.64" x2="465.793" y2="286.4"/>
	<line class="st0" x1="465.913" y1="251.72" x2="465.913" y2="271.64"/>
	<line class="st0" x1="465.913" y1="271.64" x2="465.793" y2="271.64"/>
	<line class="st0" x1="465.913" y1="302.12" x2="520.033" y2="302.12"/>
	<line class="st0" x1="465.913" y1="305.36" x2="520.033" y2="305.36"/>
	<line class="st1" x1="491.953" y1="256.16" x2="491.953" y2="302.12"/>
	<line class="st1" x1="465.913" y1="290.84" x2="520.033" y2="290.84"/>
	<line class="st1" x1="465.913" y1="267.2" x2="520.033" y2="267.2"/>
	<line class="st0" x1="575.233" y1="252.56" x2="575.233" y2="305.48"/>
	<line class="st0" x1="576.313" y1="305.48" x2="576.313" y2="252.56"/>
	<polyline class="st0" points="575.233,251.12 575.233,251.72 575.473,251.72 	"/>
	<line class="st0" x1="576.313" y1="251.72" x2="576.193" y2="251.72"/>
	<line class="st0" x1="520.033" y1="251.12" x2="520.033" y2="251.72"/>
	<polyline class="st0" points="520.033,251.72 520.993,251.72 521.113,251.72 	"/>
	<polyline class="st0" points="530.953,254.84 530.953,261.8 538.513,261.8 538.513,254.84 	"/>
	<polyline class="st0" points="557.953,254.84 557.953,261.8 565.513,261.8 565.513,254.84 	"/>
	<polyline class="st0" points="530.473,261.8 530.473,270.68 521.113,270.68 	"/>
	<line class="st0" x1="523.753" y1="254.84" x2="523.753" y2="270.68"/>
	<line class="st0" x1="529.513" y1="254.84" x2="529.513" y2="270.68"/>
	<line class="st0" x1="521.473" y1="254.84" x2="521.473" y2="269.6"/>
	<line class="st0" x1="521.473" y1="270.32" x2="521.473" y2="270.68"/>
	<path class="st0" d="M521.228,270.436c0.207,0.025,0.41-0.071,0.522-0.247c0.112-0.176,0.112-0.401,0-0.577
		c-0.112-0.176-0.315-0.273-0.522-0.247"/>
	<polyline class="st0" points="538.993,254.84 538.993,270.68 557.473,270.68 557.473,261.8 557.473,254.84 	"/>
	<polyline class="st0" points="565.993,254.96 565.993,270.68 575.233,270.68 	"/>
	<polyline class="st0" points="538.513,303.2 538.513,296.24 530.953,296.24 530.953,303.2 	"/>
	<polyline class="st0" points="565.633,303.2 565.633,296.24 557.953,296.24 	"/>
	<polyline class="st0" points="521.113,287.36 530.473,287.36 530.473,303.2 	"/>
	<polyline class="st0" points="538.993,303.2 538.993,287.36 557.473,287.36 557.473,296.24 	"/>
	<polyline class="st0" points="565.993,303.2 565.993,287.36 575.233,287.36 	"/>
	<line class="st0" x1="539.953" y1="254.84" x2="539.953" y2="270.68"/>
	<line class="st0" x1="545.593" y1="254.96" x2="545.593" y2="270.68"/>
	<line class="st0" x1="548.233" y1="254.84" x2="548.233" y2="269.36"/>
	<line class="st0" x1="548.233" y1="270.32" x2="548.233" y2="270.68"/>
	<line class="st0" x1="550.753" y1="254.96" x2="550.753" y2="270.68"/>
	<line class="st0" x1="556.513" y1="254.96" x2="556.513" y2="270.68"/>
	<line class="st0" x1="566.953" y1="254.96" x2="566.953" y2="270.8"/>
	<line class="st0" x1="572.593" y1="254.96" x2="572.593" y2="270.68"/>
	<line class="st0" x1="574.873" y1="254.84" x2="574.873" y2="269.48"/>
	<line class="st0" x1="574.873" y1="270.08" x2="574.873" y2="270.68"/>
	<line class="st0" x1="521.113" y1="305.12" x2="575.233" y2="305.12"/>
	<line class="st1" x1="530.473" y1="267.2" x2="538.993" y2="267.2"/>
	<line class="st1" x1="557.473" y1="267.2" x2="565.993" y2="267.2"/>
	<line class="st1" x1="547.153" y1="270.68" x2="547.153" y2="287.36"/>
	<line class="st1" x1="530.473" y1="290.84" x2="538.993" y2="290.84"/>
	<line class="st1" x1="557.473" y1="290.84" x2="565.993" y2="290.84"/>
	<path class="st0" d="M508.873,294.38c0-0.298-0.242-0.54-0.54-0.54c-0.298,0-0.54,0.242-0.54,0.54s0.242,0.54,0.54,0.54
		C508.632,294.92,508.873,294.678,508.873,294.38"/>
	<path class="st0" d="M493.393,279.02c0-0.298-0.242-0.54-0.54-0.54c-0.298,0-0.54,0.242-0.54,0.54c0,0.298,0.242,0.54,0.54,0.54
		C493.152,279.56,493.393,279.318,493.393,279.02"/>
	<path class="st0" d="M478.033,294.38c0-0.298-0.242-0.54-0.54-0.54c-0.298,0-0.54,0.242-0.54,0.54s0.242,0.54,0.54,0.54
		C477.792,294.92,478.033,294.678,478.033,294.38"/>
	<path class="st0" d="M478.033,263.54c0-0.298-0.242-0.54-0.54-0.54c-0.298,0-0.54,0.242-0.54,0.54s0.242,0.54,0.54,0.54
		C477.792,264.08,478.033,263.838,478.033,263.54"/>
	<path class="st0" d="M508.873,263.54c0-0.298-0.242-0.54-0.54-0.54c-0.298,0-0.54,0.242-0.54,0.54s0.242,0.54,0.54,0.54
		C508.632,264.08,508.873,263.838,508.873,263.54"/>
	<line class="st0" x1="576.433" y1="301.88" x2="627.793" y2="301.88"/>
	<polyline class="st0" points="578.833,301.88 578.833,290.24 601.633,290.24 601.633,301.88 	"/>
	<polyline class="st0" points="604.993,301.88 604.993,290.24 627.793,290.24 627.793,301.88 	"/>
	<line class="st0" x1="627.793" y1="301.88" x2="630.553" y2="301.88"/>
	<line class="st0" x1="576.433" y1="256.52" x2="627.793" y2="256.52"/>
	<polyline class="st0" points="578.833,256.52 578.833,268.04 601.633,268.04 601.633,256.52 	"/>
	<polyline class="st0" points="604.993,256.52 604.993,268.04 627.793,268.04 627.793,256.52 	"/>
	<line class="st0" x1="627.793" y1="256.52" x2="630.553" y2="256.52"/>
	<path class="st0" d="M603.913,288.86c0-0.298-0.242-0.54-0.54-0.54c-0.298,0-0.54,0.242-0.54,0.54s0.242,0.54,0.54,0.54
		C603.672,289.4,603.913,289.158,603.913,288.86"/>
	<path class="st0" d="M603.913,269.06c0-0.298-0.242-0.54-0.54-0.54c-0.298,0-0.54,0.242-0.54,0.54c0,0.298,0.242,0.54,0.54,0.54
		C603.672,269.6,603.913,269.358,603.913,269.06"/>
	<path class="st0" d="M576.437,269.597c0.205,0.022,0.405-0.076,0.515-0.251c0.109-0.175,0.109-0.397,0-0.572
		c-0.109-0.175-0.309-0.272-0.515-0.251"/>
	<path class="st0" d="M576.443,289.398c0.204,0.019,0.401-0.079,0.509-0.253c0.108-0.174,0.108-0.395,0-0.569
		s-0.305-0.272-0.509-0.253"/>
	<path class="st0" d="M630.551,268.523c-0.206-0.022-0.406,0.075-0.516,0.25c-0.11,0.175-0.11,0.398,0,0.573
		c0.11,0.175,0.31,0.272,0.516,0.25"/>
	<path class="st0" d="M548.713,288.26c0-0.232-0.188-0.42-0.42-0.42c-0.232,0-0.42,0.188-0.42,0.42s0.188,0.42,0.42,0.42
		C548.525,288.68,548.713,288.492,548.713,288.26"/>
	<path class="st0" d="M521.24,288.677c0.161,0.021,0.32-0.054,0.408-0.191c0.087-0.137,0.087-0.313,0-0.45
		c-0.087-0.137-0.246-0.212-0.408-0.191"/>
	<path class="st0" d="M575.345,287.603c-0.161-0.02-0.319,0.055-0.406,0.192c-0.087,0.137-0.087,0.312,0,0.449
		c0.087,0.137,0.245,0.212,0.406,0.192"/>
	<path class="st0" d="M548.833,269.78c0-0.298-0.242-0.54-0.54-0.54c-0.298,0-0.54,0.242-0.54,0.54c0,0.298,0.242,0.54,0.54,0.54
		C548.592,270.32,548.833,270.078,548.833,269.78"/>
	<path class="st0" d="M575.327,269.361c-0.158-0.013-0.309,0.064-0.392,0.199c-0.083,0.135-0.083,0.305,0,0.439
		c0.083,0.135,0.234,0.212,0.392,0.199"/>
	<line class="st0" x1="630.553" y1="305.48" x2="630.553" y2="252.56"/>
	<line class="st0" x1="630.553" y1="251.72" x2="630.673" y2="251.72"/>
	<line class="st0" x1="631.393" y1="251.72" x2="631.633" y2="251.72"/>
	<line class="st0" x1="631.633" y1="271.64" x2="631.393" y2="271.64"/>
	<line class="st0" x1="630.673" y1="271.64" x2="630.553" y2="271.64"/>
	<polyline class="st0" points="630.553,286.4 631.633,286.4 631.633,305.48 	"/>
	<polyline class="st0" points="631.633,301.28 632.113,301.28 632.113,301.76 640.153,301.76 640.153,301.28 644.473,301.28 
		644.473,301.88 	"/>
	<polyline class="st0" points="646.393,302.72 646.393,290.24 670.753,290.24 670.753,302.72 	"/>
	<polyline class="st0" points="672.673,301.88 672.673,301.28 676.873,301.28 676.873,301.76 685.033,301.76 685.033,301.28 
		685.753,301.28 	"/>
	<line class="st0" x1="576.433" y1="253.16" x2="630.553" y2="253.16"/>
	<line class="st0" x1="631.633" y1="252.92" x2="685.753" y2="252.92"/>
	<line class="st0" x1="631.633" y1="305.12" x2="685.753" y2="305.12"/>
	<line class="st0" x1="685.753" y1="305.48" x2="685.753" y2="252.56"/>
	<polyline class="st0" points="685.753,251.12 685.753,251.72 685.993,251.72 	"/>
	<line class="st0" x1="686.713" y1="251.72" x2="686.833" y2="251.72"/>
	<line class="st1" x1="602.353" y1="256.52" x2="602.353" y2="301.88"/>
	<line class="st1" x1="578.833" y1="290.84" x2="576.313" y2="290.84"/>
	<line class="st1" x1="601.633" y1="290.84" x2="604.993" y2="290.84"/>
	<line class="st1" x1="627.793" y1="290.84" x2="630.553" y2="290.84"/>
	<line class="st1" x1="576.313" y1="267.2" x2="578.833" y2="267.2"/>
	<line class="st1" x1="601.633" y1="267.2" x2="604.993" y2="267.2"/>
	<line class="st1" x1="627.793" y1="267.2" x2="630.553" y2="267.2"/>
	<line class="st0" x1="630.433" y1="251.12" x2="630.433" y2="251.72"/>
	<path class="st0" d="M630.554,288.323c-0.206-0.023-0.408,0.074-0.518,0.249c-0.11,0.176-0.11,0.399,0,0.575
		c0.11,0.176,0.312,0.273,0.518,0.249"/>
	<line class="st0" x1="578.833" y1="266.96" x2="601.633" y2="266.96"/>
	<line class="st0" x1="604.993" y1="266.96" x2="627.793" y2="266.96"/>
	<line class="st0" x1="578.833" y1="261.32" x2="601.633" y2="261.32"/>
	<line class="st0" x1="604.993" y1="261.32" x2="627.793" y2="261.32"/>
	<line class="st0" x1="578.833" y1="291.44" x2="601.633" y2="291.44"/>
	<line class="st0" x1="578.833" y1="297.08" x2="601.633" y2="297.08"/>
	<line class="st0" x1="604.993" y1="297.08" x2="627.793" y2="297.08"/>
	<line class="st0" x1="604.993" y1="291.44" x2="627.793" y2="291.44"/>
	<line class="st0" x1="576.313" y1="305.12" x2="630.553" y2="305.12"/>
	<line class="st0" x1="630.433" y1="306.32" x2="630.433" y2="306.92"/>
	<line class="st0" x1="630.553" y1="306.32" x2="630.673" y2="306.32"/>
	<line class="st0" x1="631.393" y1="306.32" x2="631.633" y2="306.32"/>
	<line class="st0" x1="578.833" y1="257.96" x2="601.633" y2="257.96"/>
	<line class="st0" x1="578.833" y1="259.4" x2="601.633" y2="259.4"/>
	<line class="st0" x1="604.993" y1="257.96" x2="627.793" y2="257.96"/>
	<line class="st0" x1="604.993" y1="259.4" x2="627.793" y2="259.4"/>
	<polyline class="st0" points="646.393,255.44 646.393,267.8 670.753,267.8 670.753,255.44 	"/>
	<line class="st0" x1="686.833" y1="252.56" x2="686.833" y2="305.48"/>
	<line class="st1" x1="646.393" y1="267.2" x2="631.633" y2="267.2"/>
	<line class="st1" x1="646.393" y1="290.84" x2="631.633" y2="290.84"/>
	<line class="st1" x1="685.753" y1="290.84" x2="670.753" y2="290.84"/>
	<line class="st1" x1="657.673" y1="267.8" x2="657.673" y2="290.24"/>
	<line class="st1" x1="670.753" y1="267.2" x2="685.753" y2="267.2"/>
	<line class="st0" x1="646.393" y1="291.44" x2="670.753" y2="291.44"/>
	<line class="st0" x1="646.393" y1="297.08" x2="670.753" y2="297.08"/>
	<line class="st0" x1="646.393" y1="266.72" x2="670.753" y2="266.72"/>
	<line class="st0" x1="646.393" y1="260.96" x2="670.753" y2="260.96"/>
	<path class="st0" d="M646.033,269.18c0-0.298-0.242-0.54-0.54-0.54c-0.298,0-0.54,0.242-0.54,0.54c0,0.298,0.242,0.54,0.54,0.54
		C645.792,269.72,646.033,269.478,646.033,269.18"/>
	<path class="st0" d="M671.833,269.18c0-0.298-0.242-0.54-0.54-0.54c-0.298,0-0.54,0.242-0.54,0.54c0,0.298,0.242,0.54,0.54,0.54
		C671.592,269.72,671.833,269.478,671.833,269.18"/>
	<path class="st0" d="M646.033,288.86c0-0.298-0.242-0.54-0.54-0.54c-0.298,0-0.54,0.242-0.54,0.54s0.242,0.54,0.54,0.54
		C645.792,289.4,646.033,289.158,646.033,288.86"/>
	<path class="st0" d="M671.953,288.86c0-0.298-0.242-0.54-0.54-0.54c-0.298,0-0.54,0.242-0.54,0.54s0.242,0.54,0.54,0.54
		C671.712,289.4,671.953,289.158,671.953,288.86"/>
	<line class="st0" x1="646.393" y1="259.16" x2="670.753" y2="259.16"/>
	<line class="st0" x1="646.393" y1="257.72" x2="670.753" y2="257.72"/>
	<line class="st0" x1="646.393" y1="298.88" x2="670.753" y2="298.88"/>
	<line class="st0" x1="646.393" y1="300.32" x2="670.753" y2="300.32"/>
	<polyline class="st0" points="694.633,256.52 694.633,270.92 733.633,270.92 733.633,256.52 	"/>
	<polyline class="st0" points="741.193,252.56 741.193,306.32 741.313,306.32 	"/>
	<polyline class="st0" points="685.993,306.32 685.753,306.32 685.753,306.92 	"/>
	<line class="st0" x1="686.713" y1="306.32" x2="686.833" y2="306.32"/>
	<line class="st0" x1="686.833" y1="305.12" x2="712.633" y2="305.12"/>
	<line class="st0" x1="727.513" y1="305.12" x2="741.193" y2="305.12"/>
	<polyline class="st0" points="686.833,301.52 712.633,301.52 712.633,305.12 	"/>
	<polyline class="st0" points="727.513,305.12 727.513,301.52 741.193,301.52 	"/>
	<line class="st1" x1="686.833" y1="290.84" x2="741.193" y2="290.84"/>
	<line class="st1" x1="712.633" y1="294.08" x2="727.513" y2="294.08"/>
	<line class="st1" x1="712.633" y1="305" x2="727.513" y2="305"/>
	<line class="st1" x1="686.833" y1="267.32" x2="694.633" y2="267.32"/>
	<line class="st1" x1="733.633" y1="267.32" x2="741.193" y2="267.32"/>
	<line class="st1" x1="713.953" y1="270.92" x2="713.953" y2="290.84"/>
	<line class="st0" x1="694.633" y1="269.36" x2="733.633" y2="269.36"/>
	<line class="st0" x1="694.633" y1="264.44" x2="733.633" y2="264.44"/>
	<line class="st0" x1="694.633" y1="259.52" x2="733.633" y2="259.52"/>
	<line class="st0" x1="686.833" y1="252.92" x2="741.193" y2="252.92"/>
	<line class="st0" x1="465.793" y1="286.4" x2="468.553" y2="286.4"/>
	<line class="st0" x1="472.033" y1="286.4" x2="474.313" y2="286.4"/>
	<polyline class="st0" points="477.793,286.4 480.553,286.4 480.313,283.88 479.953,282.44 	"/>
	<polyline class="st0" points="478.633,279.2 478.513,279.08 477.313,277.28 	"/>
	<polyline class="st0" points="474.913,274.88 473.113,273.68 472.993,273.56 	"/>
	<polyline class="st0" points="469.753,272.24 468.313,271.88 465.793,271.64 	"/>
	<line class="st0" x1="521.113" y1="286.4" x2="523.873" y2="286.4"/>
	<line class="st0" x1="527.353" y1="286.4" x2="529.633" y2="286.4"/>
	<polyline class="st0" points="533.113,286.4 535.873,286.4 535.633,283.88 535.273,282.44 	"/>
	<polyline class="st0" points="533.953,279.2 533.833,279.08 532.633,277.28 	"/>
	<polyline class="st0" points="530.233,274.88 528.433,273.68 528.313,273.56 	"/>
	<polyline class="st0" points="525.073,272.24 523.633,271.88 521.113,271.64 	"/>
	<line class="st0" x1="576.313" y1="286.4" x2="579.073" y2="286.4"/>
	<line class="st0" x1="582.553" y1="286.4" x2="584.833" y2="286.4"/>
	<polyline class="st0" points="588.313,286.4 591.073,286.4 590.833,283.88 590.473,282.44 	"/>
	<polyline class="st0" points="589.153,279.2 589.153,279.08 587.953,277.28 	"/>
	<polyline class="st0" points="585.433,274.88 583.753,273.68 583.513,273.56 	"/>
	<polyline class="st0" points="580.273,272.24 578.953,271.88 576.313,271.64 	"/>
	<line class="st0" x1="631.633" y1="286.4" x2="634.273" y2="286.4"/>
	<line class="st0" x1="637.753" y1="286.4" x2="640.153" y2="286.4"/>
	<polyline class="st0" points="643.513,286.4 646.273,286.4 646.033,283.88 645.673,282.44 	"/>
	<polyline class="st0" points="644.353,279.2 644.353,279.08 643.153,277.28 	"/>
	<polyline class="st0" points="640.633,274.88 638.953,273.68 638.713,273.56 	"/>
	<polyline class="st0" points="635.473,272.24 634.153,271.88 631.513,271.64 	"/>
	<line class="st0" x1="686.833" y1="286.4" x2="689.593" y2="286.4"/>
	<line class="st0" x1="693.073" y1="286.4" x2="695.353" y2="286.4"/>
	<polyline class="st0" points="698.833,286.4 701.593,286.4 701.353,283.88 700.993,282.44 	"/>
	<polyline class="st0" points="699.673,279.2 699.553,279.08 698.353,277.28 	"/>
	<polyline class="st0" points="695.953,274.88 694.153,273.68 694.033,273.56 	"/>
	<polyline class="st0" points="690.793,272.24 689.353,271.88 686.833,271.64 	"/>
	<line class="st0" x1="539.953" y1="287.36" x2="539.953" y2="303.2"/>
	<line class="st0" x1="545.593" y1="287.36" x2="545.593" y2="303.2"/>
	<line class="st0" x1="550.633" y1="287.36" x2="550.633" y2="303.2"/>
	<line class="st0" x1="556.273" y1="287.36" x2="556.273" y2="303.2"/>
	<line class="st0" x1="548.233" y1="303.2" x2="548.233" y2="288.8"/>
	<line class="st0" x1="548.233" y1="287.84" x2="548.233" y2="287.36"/>
	<line class="st0" x1="523.633" y1="303.2" x2="523.633" y2="287.36"/>
	<line class="st0" x1="529.273" y1="303.2" x2="529.273" y2="287.36"/>
	<line class="st0" x1="567.073" y1="303.2" x2="567.073" y2="287.36"/>
	<line class="st0" x1="572.593" y1="303.2" x2="572.593" y2="287.36"/>
	<line class="st0" x1="574.873" y1="303.2" x2="574.873" y2="288.44"/>
	<line class="st0" x1="574.873" y1="287.72" x2="574.873" y2="287.36"/>
	<line class="st0" x1="530.473" y1="261.8" x2="530.473" y2="254.84"/>
	<line class="st0" x1="557.953" y1="296.24" x2="557.953" y2="303.2"/>
	<line class="st0" x1="557.473" y1="296.24" x2="557.473" y2="303.2"/>
	<line class="st0" x1="423.793" y1="251.12" x2="428.953" y2="251.12"/>
	<line class="st0" x1="448.273" y1="251.12" x2="744.073" y2="251.12"/>
	<line class="st0" x1="426.553" y1="245.72" x2="428.953" y2="245.72"/>
	<line class="st0" x1="449.473" y1="245.72" x2="455.233" y2="245.72"/>
	<line class="st0" x1="457.033" y1="245.72" x2="481.873" y2="245.72"/>
	<line class="st0" x1="484.873" y1="245.72" x2="549.793" y2="245.72"/>
	<line class="st0" x1="554.713" y1="245.72" x2="748.873" y2="245.72"/>
	<line class="st0" x1="744.073" y1="251.12" x2="745.513" y2="264.08"/>
	<line class="st0" x1="751.273" y1="313.88" x2="752.353" y2="322.88"/>
	<line class="st0" x1="749.833" y1="254" x2="750.913" y2="263.48"/>
	<line class="st0" x1="756.673" y1="313.88" x2="758.353" y2="328.28"/>
	<line class="st0" x1="752.353" y1="322.88" x2="687.433" y2="322.88"/>
	<line class="st0" x1="593.593" y1="322.88" x2="514.873" y2="322.88"/>
	<line class="st0" x1="497.713" y1="322.88" x2="436.033" y2="322.88"/>
	<line class="st0" x1="545.593" y1="328.28" x2="514.873" y2="328.28"/>
	<line class="st0" x1="497.713" y1="328.28" x2="463.633" y2="328.28"/>
	<line class="st0" x1="427.873" y1="278.24" x2="427.993" y2="279.2"/>
	<line class="st0" x1="428.833" y1="278.12" x2="428.953" y2="278.96"/>
	<line class="st0" x1="548.713" y1="339.2" x2="593.593" y2="339.2"/>
	<line class="st0" x1="687.433" y1="339.2" x2="721.153" y2="339.2"/>
	<line class="st0" x1="548.713" y1="339.2" x2="545.593" y2="339.2"/>
	<line class="st0" x1="605.593" y1="333.68" x2="605.593" y2="339.2"/>
	<line class="st0" x1="605.593" y1="324.44" x2="605.593" y2="322.88"/>
	<line class="st0" x1="739.153" y1="336.44" x2="739.153" y2="339.2"/>
	<line class="st0" x1="687.433" y1="339.2" x2="687.433" y2="333.68"/>
	<line class="st0" x1="687.433" y1="324.44" x2="687.433" y2="322.88"/>
	<line class="st0" x1="721.153" y1="339.2" x2="739.153" y2="339.2"/>
	<line class="st0" x1="605.593" y1="322.88" x2="593.593" y2="322.88"/>
	<line class="st0" x1="605.593" y1="339.2" x2="593.593" y2="339.2"/>
	<line class="st0" x1="545.593" y1="339.2" x2="545.593" y2="328.28"/>
	<line class="st0" x1="463.633" y1="339.2" x2="463.633" y2="328.28"/>
	<line class="st0" x1="514.873" y1="328.28" x2="514.873" y2="322.88"/>
	<line class="st0" x1="514.273" y1="328.28" x2="514.273" y2="322.88"/>
	<polyline class="st0" points="514.873,322.88 497.713,322.88 497.713,328.28 	"/>
	<line class="st0" x1="498.193" y1="322.88" x2="498.193" y2="328.28"/>
	<line class="st0" x1="497.713" y1="328.28" x2="514.873" y2="328.28"/>
	<line class="st0" x1="498.193" y1="326.72" x2="514.273" y2="326.72"/>
	<line class="st0" x1="497.713" y1="328.28" x2="497.713" y2="328.28"/>
	<polyline class="st0" points="463.633,339.2 365.713,339.2 365.713,336.32 	"/>
	<polyline class="st0" points="436.033,322.88 380.953,322.88 365.713,336.32 	"/>
	<line class="st0" x1="751.273" y1="313.88" x2="756.673" y2="313.28"/>
	<line class="st0" x1="750.913" y1="310.28" x2="751.273" y2="310.16"/>
	<line class="st0" x1="751.513" y1="310.16" x2="752.113" y2="310.04"/>
	<line class="st0" x1="752.353" y1="310.04" x2="753.073" y2="310.04"/>
	<line class="st0" x1="753.193" y1="309.92" x2="753.913" y2="309.92"/>
	<line class="st0" x1="754.033" y1="309.92" x2="754.753" y2="309.8"/>
	<line class="st0" x1="754.993" y1="309.8" x2="755.593" y2="309.68"/>
	<line class="st0" x1="755.833" y1="309.68" x2="756.193" y2="309.68"/>
	<line class="st0" x1="750.793" y1="309.68" x2="751.273" y2="309.68"/>
	<line class="st0" x1="751.393" y1="309.56" x2="752.113" y2="309.56"/>
	<line class="st0" x1="752.233" y1="309.56" x2="752.953" y2="309.44"/>
	<line class="st0" x1="753.193" y1="309.44" x2="753.793" y2="309.32"/>
	<line class="st0" x1="754.033" y1="309.32" x2="754.753" y2="309.2"/>
	<line class="st0" x1="754.873" y1="309.2" x2="755.593" y2="309.08"/>
	<line class="st0" x1="755.713" y1="309.08" x2="756.193" y2="309.08"/>
	<line class="st0" x1="745.513" y1="264.08" x2="750.913" y2="263.48"/>
	<line class="st0" x1="745.633" y1="265.4" x2="746.113" y2="265.28"/>
	<line class="st0" x1="746.233" y1="265.28" x2="746.953" y2="265.28"/>
	<line class="st0" x1="747.193" y1="265.16" x2="747.793" y2="265.16"/>
	<line class="st0" x1="748.033" y1="265.16" x2="748.753" y2="265.04"/>
	<line class="st0" x1="748.873" y1="265.04" x2="749.593" y2="264.92"/>
	<line class="st0" x1="749.713" y1="264.92" x2="750.433" y2="264.8"/>
	<line class="st0" x1="750.553" y1="264.8" x2="751.033" y2="264.8"/>
	<line class="st0" x1="745.753" y1="266" x2="746.233" y2="265.88"/>
	<line class="st0" x1="746.353" y1="265.88" x2="747.073" y2="265.76"/>
	<line class="st0" x1="747.193" y1="265.76" x2="747.913" y2="265.76"/>
	<line class="st0" x1="748.033" y1="265.64" x2="748.753" y2="265.64"/>
	<line class="st0" x1="748.993" y1="265.64" x2="749.593" y2="265.52"/>
	<line class="st0" x1="749.833" y1="265.52" x2="750.553" y2="265.4"/>
	<line class="st0" x1="750.673" y1="265.4" x2="751.153" y2="265.28"/>
	<line class="st0" x1="756.673" y1="313.28" x2="756.673" y2="313.88"/>
	<line class="st0" x1="749.353" y1="263.6" x2="755.113" y2="313.4"/>
	<polyline class="st0" points="422.833,251.36 404.233,163.76 539.833,177.68 539.953,188.36 	"/>
	<line class="st0" x1="425.953" y1="243.08" x2="419.473" y2="212"/>
	<polyline class="st0" points="416.593,198.32 410.473,169.4 462.193,174.8 	"/>
	<line class="st0" x1="464.713" y1="175.04" x2="534.913" y2="182.24"/>
	<polyline class="st0" points="539.953,188.36 535.033,188.48 534.913,182.24 	"/>
	<polyline class="st0" points="534.553,203.72 534.553,215.24 550.033,215.36 549.793,244.04 	"/>
	<polyline class="st0" points="534.553,203.72 539.593,203.72 539.473,210.32 555.073,210.44 554.713,244.16 	"/>
	<polyline class="st0" points="419.473,170.36 416.593,198.32 442.273,200.96 442.033,203.12 436.753,202.64 419.473,212 	"/>
	<line class="st0" x1="462.193" y1="174.8" x2="459.433" y2="202.64"/>
	<line class="st0" x1="459.313" y1="204.56" x2="457.393" y2="223.64"/>
	<line class="st0" x1="464.713" y1="175.04" x2="460.633" y2="212.12"/>
	<polyline class="st0" points="460.633,212.12 465.433,213.32 465.553,214.76 460.393,215 459.433,223.76 457.393,223.64 	"/>
	<polyline class="st0" points="481.873,245.6 482.593,240.56 484.393,240.56 484.873,245.6 	"/>
	<line class="st2" x1="572.713" y1="182.96" x2="746.113" y2="201.32"/>
	<polyline class="st2" points="618.553,218.96 597.793,216.56 600.313,194.96 690.193,205.76 687.553,227.12 678.553,226.04 	"/>
	<polyline class="st2" points="618.553,218.96 618.673,217.28 599.713,215 601.873,196.88 688.273,207.2 686.113,225.2 
		678.673,224.36 678.553,226.04 	"/>
	<polyline class="st2" points="653.833,221.48 653.713,223.28 663.793,224.36 663.913,222.56 	"/>
	<line class="st2" x1="539.953" y1="185.12" x2="572.953" y2="188.6"/>
	<line class="st2" x1="712.513" y1="197.72" x2="712.033" y2="245.72"/>
	<polyline class="st2" points="686.353,245.48 686.353,230 712.153,230.24 	"/>
	<line class="st2" x1="691.153" y1="230" x2="691.033" y2="245.48"/>
	<line class="st2" x1="695.953" y1="230" x2="695.833" y2="245.6"/>
	<line class="st2" x1="724.273" y1="242.48" x2="724.033" y2="240.44"/>
	<polyline class="st2" points="722.953,237.2 722.233,235.64 721.753,235.16 	"/>
	<polyline class="st2" points="719.353,232.76 718.873,232.28 717.433,231.56 	"/>
	<line class="st2" x1="714.073" y1="230.48" x2="712.153" y2="230.24"/>
	<polyline class="st0" points="457.513,240.92 473.713,242.6 473.833,241.64 457.633,239.96 457.513,240.92 	"/>
	<line class="st0" x1="473.833" y1="241.64" x2="473.953" y2="239.36"/>
	<polyline class="st0" points="473.353,235.88 472.873,234.08 472.633,233.72 	"/>
	<polyline class="st0" points="470.953,230.72 470.353,229.76 469.513,228.92 	"/>
	<polyline class="st0" points="466.873,226.64 466.513,226.28 464.953,225.44 	"/>
	<line class="st0" x1="461.713" y1="224.24" x2="459.433" y2="223.76"/>
	<line class="st0" x1="457.513" y1="240.92" x2="457.393" y2="242.6"/>
	<line class="st2" x1="618.553" y1="218.96" x2="653.713" y2="223.28"/>
	<line class="st2" x1="618.673" y1="218" x2="653.833" y2="222.32"/>
	<line class="st2" x1="663.793" y1="224.36" x2="678.553" y2="226.04"/>
	<line class="st2" x1="663.913" y1="223.4" x2="678.673" y2="225.08"/>
	<line class="st2" x1="618.553" y1="218.96" x2="618.193" y2="222.8"/>
	<line class="st2" x1="617.833" y1="226.28" x2="617.713" y2="228.56"/>
	<line class="st2" x1="617.353" y1="232.04" x2="616.993" y2="235.76"/>
	<line class="st2" x1="653.713" y1="223.28" x2="653.353" y2="226.76"/>
	<line class="st2" x1="652.993" y1="230.24" x2="652.753" y2="232.52"/>
	<line class="st2" x1="652.393" y1="236" x2="652.033" y2="239.6"/>
	<line class="st2" x1="678.553" y1="226.04" x2="678.193" y2="228.92"/>
	<line class="st2" x1="677.713" y1="232.4" x2="677.473" y2="234.68"/>
	<line class="st2" x1="677.113" y1="238.16" x2="676.753" y2="241.04"/>
	<line class="st2" x1="663.553" y1="224.24" x2="663.433" y2="225.68"/>
	<polyline class="st2" points="663.793,229.16 663.793,229.52 664.393,231.44 	"/>
	<line class="st2" x1="665.953" y1="234.44" x2="667.393" y2="236.24"/>
	<polyline class="st2" points="670.033,238.52 671.713,239.6 672.073,239.72 	"/>
	<line class="st2" x1="675.313" y1="240.8" x2="676.753" y2="241.04"/>
	<line class="st2" x1="616.993" y1="235.76" x2="619.753" y2="235.76"/>
	<line class="st2" x1="623.233" y1="235.16" x2="625.393" y2="234.44"/>
	<line class="st2" x1="628.393" y1="232.76" x2="630.313" y2="231.32"/>
	<line class="st2" x1="632.593" y1="228.8" x2="633.913" y2="226.88"/>
	<polyline class="st2" points="635.353,223.76 636.073,221.12 636.193,223.88 636.313,224.24 	"/>
	<polyline class="st2" points="637.033,227.72 637.513,229.04 637.873,229.76 	"/>
	<polyline class="st2" points="639.673,232.76 640.393,233.72 641.113,234.56 	"/>
	<polyline class="st2" points="643.753,236.84 644.353,237.32 645.793,238.04 	"/>
	<polyline class="st2" points="648.913,239.36 649.393,239.48 652.033,240.08 652.033,239.6 	"/>
	<polyline class="st0" points="454.393,219.56 455.353,219.68 457.153,204.32 456.193,204.32 454.393,219.56 	"/>
	<line class="st0" x1="457.153" y1="204.32" x2="459.313" y2="204.56"/>
	<polyline class="st0" points="442.033,202.52 442.033,205.04 442.273,206.48 	"/>
	<polyline class="st0" points="443.113,209.84 443.233,210.08 444.193,211.88 	"/>
	<polyline class="st0" points="446.233,214.76 447.673,216.2 447.793,216.32 	"/>
	<polyline class="st0" points="450.793,218.24 451.993,218.84 454.393,219.56 	"/>
	<line class="st2" x1="663.913" y1="222.56" x2="653.833" y2="221.48"/>
	<line class="st0" x1="549.793" y1="244.04" x2="549.793" y2="245.72"/>
	<line class="st0" x1="554.713" y1="244.16" x2="554.713" y2="245.72"/>
	<line class="st0" x1="484.873" y1="245.6" x2="484.873" y2="245.72"/>
	<line class="st0" x1="481.873" y1="245.6" x2="481.873" y2="245.72"/>
	<line class="st0" x1="425.953" y1="243.08" x2="426.553" y2="245.72"/>
	<line class="st0" x1="457.513" y1="240.92" x2="457.033" y2="245.72"/>
	<polyline class="st0" points="457.873,240.92 455.713,240.8 455.233,245.72 	"/>
	<polyline class="st0" points="426.553,245.72 428.953,245.72 428.953,251.12 	"/>
	<line class="st0" x1="423.193" y1="252.68" x2="421.393" y2="253.28"/>
	<line class="st0" x1="418.033" y1="254.12" x2="415.753" y2="254.84"/>
	<line class="st0" x1="412.393" y1="255.68" x2="410.593" y2="256.16"/>
	<line class="st0" x1="206.953" y1="330.56" x2="356.593" y2="239.96"/>
	<polyline class="st0" points="356.593,239.96 358.873,234.68 421.873,246.68 	"/>
	<line class="st0" x1="358.873" y1="234.68" x2="417.913" y2="227.72"/>
	<polyline class="st0" points="206.953,330.56 203.473,332.72 201.433,333.92 	"/>
	<line class="st0" x1="201.433" y1="333.92" x2="368.473" y2="333.92"/>
	<line class="st0" x1="356.593" y1="239.96" x2="422.233" y2="248.36"/>
	<line class="st0" x1="226.633" y1="333.92" x2="235.033" y2="328.28"/>
	<line class="st0" x1="236.473" y1="327.32" x2="358.993" y2="245.36"/>
	<line class="st0" x1="359.833" y1="244.88" x2="365.473" y2="241.04"/>
	<line class="st0" x1="251.833" y1="333.92" x2="259.753" y2="327.92"/>
	<line class="st0" x1="261.073" y1="326.96" x2="367.033" y2="247.64"/>
	<line class="st0" x1="368.233" y1="246.8" x2="374.353" y2="242.24"/>
	<line class="st0" x1="277.033" y1="333.92" x2="284.353" y2="327.68"/>
	<line class="st0" x1="285.433" y1="326.72" x2="377.353" y2="248.48"/>
	<line class="st0" x1="378.433" y1="247.52" x2="383.353" y2="243.32"/>
	<line class="st0" x1="302.113" y1="333.92" x2="308.833" y2="327.32"/>
	<line class="st0" x1="309.793" y1="326.36" x2="387.433" y2="249.2"/>
	<line class="st0" x1="388.393" y1="248.36" x2="392.233" y2="244.52"/>
	<line class="st0" x1="327.313" y1="333.92" x2="333.073" y2="327.08"/>
	<line class="st0" x1="333.913" y1="326.12" x2="397.513" y2="250.04"/>
	<line class="st0" x1="398.233" y1="249.08" x2="401.113" y2="245.72"/>
	<line class="st0" x1="352.513" y1="333.92" x2="357.313" y2="326.72"/>
	<line class="st0" x1="357.913" y1="325.76" x2="410.113" y2="246.8"/>
	<line class="st0" x1="383.113" y1="322.88" x2="419.593" y2="248"/>
	<polyline class="st0" points="201.433,333.92 201.433,352.16 429.553,352.16 450.313,339.32 	"/>
	<line class="st0" x1="429.553" y1="352.16" x2="456.913" y2="339.2"/>
	<polyline class="st0" points="685.393,395.36 662.233,394.52 659.953,378.44 677.593,377.84 685.393,395.36 	"/>
	<polyline class="st0" points="496.753,387.68 631.993,379.4 628.633,393.44 	"/>
	<line class="st0" x1="493.753" y1="360.08" x2="496.753" y2="387.68"/>
	<line class="st0" x1="630.073" y1="387.32" x2="631.993" y2="387.32"/>
	<line class="st0" x1="632.953" y1="387.32" x2="659.473" y2="387.44"/>
	<line class="st0" x1="660.433" y1="387.44" x2="661.273" y2="387.44"/>
	<line class="st0" x1="630.433" y1="386" x2="632.353" y2="386"/>
	<line class="st0" x1="633.313" y1="386" x2="659.353" y2="386.12"/>
	<line class="st0" x1="660.313" y1="386.12" x2="661.033" y2="386.12"/>
	<line class="st0" x1="631.273" y1="382.4" x2="633.073" y2="382.4"/>
	<line class="st0" x1="634.153" y1="382.4" x2="658.873" y2="382.4"/>
	<line class="st0" x1="659.833" y1="382.4" x2="660.553" y2="382.4"/>
	<line class="st0" x1="631.633" y1="380.96" x2="633.433" y2="380.96"/>
	<line class="st0" x1="634.393" y1="380.96" x2="658.753" y2="381.08"/>
	<line class="st0" x1="659.713" y1="381.08" x2="660.313" y2="381.08"/>
	<line class="st0" x1="627.193" y1="328.4" x2="627.193" y2="329.36"/>
	<polyline class="st0" points="627.193,346.76 627.193,347.72 625.873,347.72 625.873,346.76 	"/>
	<polyline class="st0" points="625.873,329.36 625.873,328.4 627.193,328.4 	"/>
	<line class="st0" x1="677.593" y1="377.84" x2="698.473" y2="339.2"/>
	<line class="st0" x1="685.393" y1="395.36" x2="698.713" y2="339.2"/>
	<line class="st0" x1="664.513" y1="328.4" x2="664.513" y2="329.36"/>
	<polyline class="st0" points="664.513,346.76 664.513,347.72 665.833,347.72 665.833,346.76 	"/>
	<polyline class="st0" points="665.833,329.36 665.833,328.4 664.513,328.4 	"/>
	<polyline class="st0" points="497.593,386.36 635.353,377 631.633,393.68 	"/>
	<polyline class="st0" points="497.713,387.32 634.033,378.08 630.673,393.44 630.673,393.68 631.633,393.68 	"/>
	<polyline class="st0" points="660.193,394.64 658.153,375.44 673.753,374.48 697.033,339.2 	"/>
	<polyline class="st0" points="661.153,394.52 659.233,376.28 674.233,375.44 698.113,339.2 	"/>
	<polyline class="st0" points="660.193,394.64 661.153,394.64 661.033,393.8 	"/>
	<line class="st0" x1="564.073" y1="339.56" x2="493.753" y2="360.08"/>
	<line class="st0" x1="685.393" y1="395.36" x2="708.433" y2="339.2"/>
	<line class="st0" x1="496.753" y1="387.32" x2="496.753" y2="387.68"/>
	<line class="st0" x1="493.753" y1="360.08" x2="552.793" y2="339.2"/>
	<line class="st0" x1="497.593" y1="386.36" x2="497.713" y2="387.32"/>
	<polyline class="st0" points="496.753,387.68 496.873,388.76 628.633,393.44 	"/>
	<line class="st0" x1="432.433" y1="298.04" x2="433.153" y2="297.92"/>
	<polyline class="st0" points="450.433,294.68 451.393,294.56 451.633,295.76 450.673,296 	"/>
	<line class="st0" x1="433.393" y1="299.12" x2="432.673" y2="299.24"/>
	<line class="st0" x1="451.393" y1="294.56" x2="450.913" y2="292.76"/>
	<polyline class="st0" points="449.713,289.52 449.473,288.8 448.513,287.48 	"/>
	<polyline class="st0" points="446.473,284.72 445.753,284 444.793,283.16 	"/>
	<polyline class="st0" points="441.913,281.24 440.833,280.64 439.753,280.28 	"/>
	<polyline class="st0" points="436.513,279.2 434.953,278.84 434.233,278.84 	"/>
	<line class="st0" x1="430.753" y1="278.84" x2="428.953" y2="279.08"/>
	<polyline class="st0" points="214.153,333.92 223.873,327.44 261.313,326.96 	"/>
	<polyline class="st0" points="261.073,326.96 367.033,325.64 375.313,328.28 	"/>
	<polyline class="st0" points="215.953,333.92 224.113,328.4 259.753,327.92 	"/>
	<polyline class="st0" points="259.753,328.04 366.913,326.6 374.113,328.88 	"/>
	<polyline class="st0" points="355.753,240.44 360.193,247.16 406.633,250.76 409.513,246.8 	"/>
	<polyline class="st0" points="356.833,240.32 360.673,246.2 406.153,249.68 408.433,246.56 	"/>
	<line class="st2" x1="712.033" y1="242.48" x2="713.473" y2="242.48"/>
	<line class="st2" x1="716.953" y1="242.48" x2="719.353" y2="242.48"/>
	<line class="st2" x1="722.713" y1="242.48" x2="724.273" y2="242.48"/>
	<line class="st0" x1="605.593" y1="339.2" x2="605.593" y2="333.68"/>
	<line class="st0" x1="605.593" y1="329.72" x2="625.273" y2="329.72"/>
	<line class="st0" x1="666.433" y1="329.72" x2="687.433" y2="329.72"/>
	<line class="st0" x1="625.873" y1="328.4" x2="625.873" y2="327.2"/>
	<line class="st0" x1="625.273" y1="329.72" x2="625.273" y2="328.4"/>
	<polyline class="st0" points="625.273,327.2 625.273,324.44 605.593,324.44 	"/>
	<line class="st0" x1="665.833" y1="328.4" x2="665.833" y2="327.2"/>
	<line class="st0" x1="666.433" y1="324.44" x2="687.433" y2="324.44"/>
	<polyline class="st0" points="448.273,251.12 448.273,270.44 449.473,270.44 449.473,251.12 448.273,251.12 	"/>
	<line class="st0" x1="449.473" y1="251.12" x2="453.913" y2="251.12"/>
	<line class="st0" x1="428.953" y1="251.12" x2="429.073" y2="252.92"/>
	<polyline class="st0" points="429.673,256.4 429.793,257.12 430.513,258.56 	"/>
	<polyline class="st0" points="432.073,261.56 432.553,262.52 433.393,263.48 	"/>
	<polyline class="st0" points="435.913,265.88 436.873,266.72 437.713,267.32 	"/>
	<polyline class="st0" points="440.833,268.88 442.273,269.48 442.993,269.72 	"/>
	<line class="st0" x1="446.473" y1="270.32" x2="448.273" y2="270.44"/>
	<line class="st0" x1="449.473" y1="251.12" x2="449.473" y2="245.72"/>
	<line class="st0" x1="762.793" y1="245.72" x2="748.873" y2="245.72"/>
	<line class="st0" x1="605.593" y1="329.72" x2="605.593" y2="333.68"/>
	<line class="st0" x1="739.153" y1="328.28" x2="758.353" y2="328.28"/>
	<line class="st0" x1="687.433" y1="333.68" x2="687.433" y2="329.72"/>
	<line class="st0" x1="410.593" y1="256.16" x2="410.233" y2="254.24"/>
	<line class="st0" x1="409.513" y1="250.88" x2="409.033" y2="248.6"/>
	<line class="st0" x1="408.313" y1="245.12" x2="407.713" y2="242.96"/>
	<line class="st0" x1="406.993" y1="239.48" x2="406.513" y2="237.2"/>
	<line class="st0" x1="405.793" y1="233.84" x2="405.313" y2="231.56"/>
	<line class="st0" x1="404.593" y1="228.2" x2="404.113" y2="225.92"/>
	<line class="st0" x1="403.393" y1="222.56" x2="402.913" y2="220.28"/>
	<line class="st0" x1="402.193" y1="216.8" x2="401.593" y2="214.64"/>
	<line class="st0" x1="400.873" y1="211.16" x2="400.393" y2="208.88"/>
	<line class="st0" x1="399.673" y1="205.52" x2="399.193" y2="203.24"/>
	<line class="st0" x1="398.473" y1="199.88" x2="397.993" y2="197.6"/>
	<line class="st0" x1="397.273" y1="194.24" x2="396.793" y2="191.96"/>
	<line class="st0" x1="396.073" y1="188.6" x2="395.473" y2="186.32"/>
	<line class="st0" x1="394.753" y1="182.84" x2="394.273" y2="180.56"/>
	<line class="st0" x1="393.553" y1="177.2" x2="393.073" y2="174.92"/>
	<line class="st0" x1="392.353" y1="171.56" x2="391.873" y2="169.28"/>
	<line class="st0" x1="391.153" y1="165.92" x2="390.673" y2="163.64"/>
	<line class="st0" x1="389.953" y1="160.28" x2="389.473" y2="158"/>
	<polyline class="st0" points="388.633,154.52 388.273,152.6 390.313,152.84 	"/>
	<line class="st0" x1="393.793" y1="153.2" x2="396.073" y2="153.44"/>
	<line class="st0" x1="399.553" y1="153.8" x2="401.833" y2="154.04"/>
	<line class="st0" x1="405.313" y1="154.4" x2="407.593" y2="154.64"/>
	<line class="st0" x1="411.073" y1="155.12" x2="413.353" y2="155.36"/>
	<line class="st0" x1="416.833" y1="155.72" x2="419.113" y2="155.96"/>
	<line class="st0" x1="422.593" y1="156.32" x2="424.873" y2="156.56"/>
	<line class="st0" x1="428.353" y1="156.92" x2="430.633" y2="157.16"/>
	<line class="st0" x1="434.113" y1="157.64" x2="436.393" y2="157.88"/>
	<line class="st0" x1="439.873" y1="158.24" x2="442.153" y2="158.48"/>
	<line class="st0" x1="445.633" y1="158.84" x2="447.913" y2="159.08"/>
	<line class="st0" x1="451.393" y1="159.44" x2="453.673" y2="159.68"/>
	<line class="st0" x1="457.153" y1="160.16" x2="459.433" y2="160.4"/>
	<line class="st0" x1="462.913" y1="160.76" x2="465.193" y2="161"/>
	<line class="st0" x1="468.673" y1="161.36" x2="470.953" y2="161.6"/>
	<line class="st0" x1="474.433" y1="161.96" x2="476.713" y2="162.2"/>
	<line class="st0" x1="480.193" y1="162.68" x2="482.473" y2="162.92"/>
	<line class="st0" x1="485.953" y1="163.28" x2="488.233" y2="163.52"/>
	<line class="st0" x1="491.713" y1="163.88" x2="493.993" y2="164.12"/>
	<line class="st0" x1="497.473" y1="164.48" x2="499.753" y2="164.72"/>
	<line class="st0" x1="503.233" y1="165.08" x2="505.513" y2="165.44"/>
	<line class="st0" x1="508.993" y1="165.8" x2="511.273" y2="166.04"/>
	<line class="st0" x1="514.753" y1="166.4" x2="517.033" y2="166.64"/>
	<line class="st0" x1="520.513" y1="167" x2="522.793" y2="167.24"/>
	<line class="st0" x1="526.273" y1="167.6" x2="528.553" y2="167.96"/>
	<line class="st0" x1="532.033" y1="168.32" x2="534.313" y2="168.56"/>
	<polyline class="st0" points="537.793,168.92 539.833,169.16 539.833,171.68 	"/>
	<line class="st0" x1="539.833" y1="175.16" x2="539.833" y2="177.68"/>
	<line class="st0" x1="404.233" y1="163.76" x2="402.433" y2="162.56"/>
	<line class="st0" x1="399.553" y1="160.52" x2="397.633" y2="159.2"/>
	<line class="st0" x1="394.873" y1="157.16" x2="392.953" y2="155.84"/>
	<line class="st0" x1="390.073" y1="153.92" x2="388.273" y2="152.6"/>
	<line class="st0" x1="427.993" y1="279.2" x2="428.953" y2="278.96"/>
	<line class="st0" x1="427.873" y1="278.24" x2="428.833" y2="278.12"/>
	<line class="st0" x1="431.473" y1="298.16" x2="432.433" y2="298.04"/>
	<line class="st0" x1="431.713" y1="299.12" x2="432.553" y2="299"/>
	<line class="st0" x1="278.593" y1="287.24" x2="399.313" y2="287.24"/>
	<path class="st3" d="M400.513,287.24h-3.48v1.92L400.513,287.24z M397.033,285.2l3.48,2.04h-3.48V285.2z"/>
	<path class="st4" d="M400.513,287.24h-3.48v1.92L400.513,287.24z M397.033,285.2l3.48,2.04h-3.48V285.2z"/>
	<polyline class="st0" points="400.513,287.24 397.033,285.2 397.033,289.16 400.513,287.24 	"/>
	<line class="st0" x1="645.313" y1="394.04" x2="645.313" y2="382.16"/>
	<polygon class="st3" points="645.313,380.96 647.353,384.44 643.273,384.44 	"/>
	<polygon class="st4" points="645.313,380.96 647.353,384.44 643.273,384.44 	"/>
	<polyline class="st0" points="645.313,380.96 643.273,384.44 647.353,384.44 645.313,380.96 	"/>
	<line class="st0" x1="580.033" y1="339.2" x2="612.073" y2="378.56"/>
	<line class="st0" x1="762.793" y1="245.72" x2="763.033" y2="247.64"/>
	<line class="st0" x1="763.513" y1="251" x2="763.753" y2="253.4"/>
	<line class="st0" x1="764.113" y1="256.76" x2="764.473" y2="259.16"/>
	<line class="st0" x1="764.833" y1="262.52" x2="765.073" y2="264.8"/>
	<line class="st0" x1="765.553" y1="268.28" x2="765.793" y2="270.56"/>
	<line class="st0" x1="766.153" y1="274.04" x2="766.513" y2="276.32"/>
	<line class="st0" x1="766.873" y1="279.8" x2="767.113" y2="282.08"/>
	<line class="st0" x1="767.593" y1="285.56" x2="767.833" y2="287.84"/>
	<line class="st0" x1="768.193" y1="291.32" x2="768.553" y2="293.6"/>
	<line class="st0" x1="768.913" y1="297.08" x2="769.153" y2="299.36"/>
	<line class="st0" x1="769.633" y1="302.84" x2="769.873" y2="305.12"/>
	<line class="st0" x1="770.233" y1="308.6" x2="770.593" y2="310.88"/>
	<line class="st0" x1="770.953" y1="314.36" x2="771.193" y2="316.64"/>
	<line class="st0" x1="771.673" y1="320.12" x2="771.913" y2="322.4"/>
	<line class="st0" x1="772.273" y1="325.88" x2="772.633" y2="328.16"/>
	<line class="st0" x1="772.993" y1="331.64" x2="773.233" y2="333.92"/>
	<line class="st0" x1="773.713" y1="337.4" x2="773.953" y2="339.2"/>
	<line class="st0" x1="769.753" y1="245.72" x2="770.113" y2="249.08"/>
	<line class="st0" x1="770.473" y1="252.56" x2="770.713" y2="254.84"/>
	<line class="st0" x1="771.073" y1="258.2" x2="771.313" y2="260.6"/>
	<line class="st0" x1="771.793" y1="263.96" x2="772.033" y2="266.36"/>
	<line class="st0" x1="772.393" y1="269.72" x2="772.633" y2="272.12"/>
	<line class="st0" x1="773.113" y1="275.48" x2="773.353" y2="277.88"/>
	<line class="st0" x1="773.713" y1="281.24" x2="773.953" y2="283.64"/>
	<line class="st0" x1="774.313" y1="287" x2="774.673" y2="289.4"/>
	<line class="st0" x1="775.033" y1="292.76" x2="775.273" y2="295.16"/>
	<line class="st0" x1="775.633" y1="298.52" x2="775.873" y2="300.92"/>
	<line class="st0" x1="776.353" y1="304.28" x2="776.593" y2="306.56"/>
	<line class="st0" x1="776.953" y1="310.04" x2="777.193" y2="312.32"/>
	<line class="st0" x1="777.553" y1="315.8" x2="777.913" y2="318.08"/>
	<line class="st0" x1="778.273" y1="321.56" x2="778.513" y2="323.84"/>
	<line class="st0" x1="778.873" y1="327.32" x2="779.113" y2="329.6"/>
	<line class="st0" x1="779.593" y1="333.08" x2="779.953" y2="336.44"/>
	<line class="st0" x1="762.793" y1="245.72" x2="764.473" y2="245.72"/>
	<line class="st0" x1="767.953" y1="245.72" x2="769.753" y2="245.72"/>
	<line class="st0" x1="758.353" y1="328.28" x2="760.033" y2="329.48"/>
	<line class="st0" x1="762.793" y1="331.4" x2="764.713" y2="332.72"/>
	<line class="st0" x1="767.593" y1="334.76" x2="769.513" y2="336.08"/>
	<line class="st0" x1="772.273" y1="338.12" x2="773.953" y2="339.2"/>
	<line class="st0" x1="769.753" y1="245.72" x2="766.753" y2="246.92"/>
	<line class="st0" x1="763.513" y1="248.24" x2="761.353" y2="249.2"/>
	<line class="st0" x1="758.113" y1="250.52" x2="755.953" y2="251.36"/>
	<line class="st0" x1="752.833" y1="252.68" x2="749.833" y2="254"/>
	<line class="st2" x1="801.193" y1="515.72" x2="800.953" y2="514.4"/>
	<line class="st2" x1="800.113" y1="511.04" x2="799.633" y2="508.76"/>
	<line class="st2" x1="798.913" y1="505.4" x2="798.313" y2="503.12"/>
	<polyline class="st2" points="797.593,499.76 797.473,499.28 796.993,497.48 	"/>
	<line class="st2" x1="796.153" y1="494.12" x2="795.673" y2="491.84"/>
	<line class="st2" x1="794.833" y1="488.48" x2="794.233" y2="486.32"/>
	<line class="st2" x1="793.393" y1="482.84" x2="792.793" y2="480.68"/>
	<line class="st2" x1="791.833" y1="477.32" x2="791.233" y2="475.04"/>
	<line class="st2" x1="790.273" y1="471.68" x2="789.673" y2="469.52"/>
	<line class="st2" x1="788.713" y1="466.16" x2="787.993" y2="463.88"/>
	<line class="st2" x1="787.033" y1="460.64" x2="786.313" y2="458.36"/>
	<line class="st2" x1="785.353" y1="455.12" x2="784.633" y2="452.84"/>
	<line class="st2" x1="783.673" y1="449.48" x2="782.953" y2="447.32"/>
	<line class="st2" x1="781.873" y1="444.08" x2="781.153" y2="441.8"/>
	<line class="st2" x1="780.073" y1="438.56" x2="779.353" y2="436.28"/>
	<line class="st2" x1="778.153" y1="433.04" x2="777.433" y2="430.88"/>
	<line class="st2" x1="776.233" y1="427.52" x2="775.393" y2="425.36"/>
	<line class="st2" x1="774.313" y1="422.12" x2="773.473" y2="419.96"/>
	<line class="st2" x1="772.273" y1="416.72" x2="771.433" y2="414.56"/>
	<line class="st2" x1="770.233" y1="411.32" x2="769.393" y2="409.16"/>
	<line class="st2" x1="768.073" y1="405.92" x2="767.233" y2="403.76"/>
	<line class="st2" x1="766.033" y1="400.52" x2="765.073" y2="398.36"/>
	<line class="st2" x1="763.753" y1="395.12" x2="762.913" y2="392.96"/>
	<line class="st2" x1="761.593" y1="389.72" x2="760.633" y2="387.68"/>
	<line class="st2" x1="759.313" y1="384.44" x2="758.353" y2="382.28"/>
	<line class="st2" x1="756.913" y1="379.16" x2="755.953" y2="377"/>
	<line class="st2" x1="754.633" y1="373.88" x2="753.673" y2="371.72"/>
	<line class="st2" x1="752.113" y1="368.6" x2="751.153" y2="366.44"/>
	<line class="st2" x1="749.713" y1="363.32" x2="748.753" y2="361.28"/>
	<polyline class="st2" points="747.193,358.16 746.473,356.48 746.233,356 	"/>
	<line class="st2" x1="744.673" y1="352.88" x2="743.593" y2="350.84"/>
	<line class="st2" x1="742.033" y1="347.72" x2="741.073" y2="345.68"/>
	<line class="st2" x1="739.513" y1="342.56" x2="738.913" y2="341.36"/>
	<line class="st2" x1="521.953" y1="341.48" x2="520.273" y2="345.08"/>
	<line class="st2" x1="518.713" y1="348.2" x2="517.633" y2="350.24"/>
	<line class="st2" x1="516.193" y1="353.36" x2="515.113" y2="355.4"/>
	<line class="st2" x1="513.673" y1="358.52" x2="512.593" y2="360.68"/>
	<line class="st2" x1="511.153" y1="363.8" x2="510.193" y2="365.96"/>
	<line class="st2" x1="508.753" y1="369.08" x2="507.793" y2="371.12"/>
	<line class="st2" x1="506.353" y1="374.36" x2="505.513" y2="376.52"/>
	<line class="st2" x1="504.073" y1="379.64" x2="503.113" y2="381.8"/>
	<line class="st2" x1="501.793" y1="385.04" x2="500.833" y2="387.08"/>
	<line class="st2" x1="499.513" y1="390.32" x2="498.673" y2="392.48"/>
	<line class="st2" x1="497.353" y1="395.72" x2="496.513" y2="397.88"/>
	<polyline class="st2" points="495.193,401.12 494.473,402.92 494.353,403.28 	"/>
	<line class="st2" x1="493.033" y1="406.52" x2="492.313" y2="408.68"/>
	<line class="st2" x1="490.993" y1="411.92" x2="490.273" y2="414.08"/>
	<polyline class="st2" points="488.953,417.32 488.473,418.64 488.233,419.48 	"/>
	<line class="st2" x1="487.033" y1="422.72" x2="486.313" y2="425"/>
	<line class="st2" x1="485.113" y1="428.24" x2="484.393" y2="430.4"/>
	<polyline class="st2" points="483.193,433.76 482.953,434.48 482.473,435.92 	"/>
	<line class="st2" x1="481.393" y1="439.16" x2="480.673" y2="441.44"/>
	<line class="st2" x1="479.593" y1="444.68" x2="478.873" y2="446.96"/>
	<polyline class="st2" points="477.793,450.2 477.793,450.56 477.193,452.48 	"/>
	<line class="st2" x1="476.233" y1="455.84" x2="475.513" y2="458"/>
	<line class="st2" x1="474.553" y1="461.36" x2="473.833" y2="463.52"/>
	<line class="st2" x1="472.873" y1="466.88" x2="472.273" y2="469.16"/>
	<line class="st2" x1="471.313" y1="472.52" x2="470.713" y2="474.68"/>
	<line class="st2" x1="469.873" y1="478.04" x2="469.273" y2="480.32"/>
	<line class="st2" x1="468.313" y1="483.68" x2="467.833" y2="485.96"/>
	<line class="st2" x1="466.993" y1="489.32" x2="466.393" y2="491.6"/>
	<line class="st2" x1="465.553" y1="494.96" x2="465.073" y2="497.12"/>
	<line class="st2" x1="464.233" y1="500.6" x2="463.753" y2="502.76"/>
	<line class="st2" x1="463.033" y1="506.24" x2="462.553" y2="508.52"/>
	<line class="st2" x1="461.713" y1="511.88" x2="460.873" y2="515.72"/>
	<line class="st2" x1="738.913" y1="341.36" x2="736.513" y2="341.36"/>
	<line class="st2" x1="733.033" y1="341.36" x2="730.633" y2="341.36"/>
	<line class="st2" x1="727.153" y1="341.36" x2="724.873" y2="341.36"/>
	<line class="st2" x1="721.393" y1="341.36" x2="719.113" y2="341.36"/>
	<line class="st2" x1="715.633" y1="341.36" x2="713.233" y2="341.36"/>
	<line class="st2" x1="709.753" y1="341.36" x2="707.473" y2="341.36"/>
	<line class="st2" x1="703.993" y1="341.36" x2="701.713" y2="341.36"/>
	<line class="st2" x1="698.233" y1="341.36" x2="695.953" y2="341.36"/>
	<line class="st2" x1="692.473" y1="341.36" x2="690.073" y2="341.36"/>
	<line class="st2" x1="686.593" y1="341.36" x2="684.313" y2="341.36"/>
	<line class="st2" x1="680.833" y1="341.48" x2="678.553" y2="341.48"/>
	<line class="st2" x1="675.073" y1="341.48" x2="672.673" y2="341.48"/>
	<line class="st2" x1="669.193" y1="341.48" x2="666.913" y2="341.48"/>
	<line class="st2" x1="663.433" y1="341.48" x2="661.153" y2="341.48"/>
	<line class="st2" x1="657.673" y1="341.48" x2="655.393" y2="341.48"/>
	<line class="st2" x1="651.913" y1="341.48" x2="649.513" y2="341.48"/>
	<line class="st2" x1="646.033" y1="341.48" x2="643.753" y2="341.48"/>
	<line class="st2" x1="640.273" y1="341.48" x2="637.993" y2="341.48"/>
	<line class="st2" x1="634.513" y1="341.48" x2="632.113" y2="341.48"/>
	<line class="st2" x1="628.633" y1="341.48" x2="626.353" y2="341.48"/>
	<line class="st2" x1="622.873" y1="341.48" x2="620.593" y2="341.48"/>
	<line class="st2" x1="617.113" y1="341.48" x2="614.833" y2="341.48"/>
	<line class="st2" x1="611.353" y1="341.48" x2="608.953" y2="341.48"/>
	<line class="st2" x1="605.473" y1="341.48" x2="603.193" y2="341.48"/>
	<line class="st2" x1="599.713" y1="341.48" x2="597.433" y2="341.48"/>
	<line class="st2" x1="593.953" y1="341.48" x2="591.553" y2="341.48"/>
	<line class="st2" x1="588.193" y1="341.48" x2="585.793" y2="341.48"/>
	<line class="st2" x1="582.313" y1="341.48" x2="580.033" y2="341.48"/>
	<line class="st2" x1="576.553" y1="341.48" x2="574.273" y2="341.48"/>
	<line class="st2" x1="570.793" y1="341.48" x2="568.393" y2="341.48"/>
	<line class="st2" x1="564.913" y1="341.48" x2="562.633" y2="341.48"/>
	<line class="st2" x1="559.153" y1="341.48" x2="556.873" y2="341.48"/>
	<line class="st2" x1="553.393" y1="341.48" x2="550.993" y2="341.48"/>
	<line class="st2" x1="547.633" y1="341.48" x2="545.233" y2="341.48"/>
	<line class="st2" x1="541.753" y1="341.48" x2="539.473" y2="341.48"/>
	<line class="st2" x1="535.993" y1="341.48" x2="533.713" y2="341.48"/>
	<line class="st2" x1="530.233" y1="341.48" x2="527.833" y2="341.48"/>
	<line class="st2" x1="524.353" y1="341.48" x2="521.953" y2="341.48"/>
	<line class="st2" x1="439.273" y1="347.6" x2="439.753" y2="515.72"/>
	<line class="st2" x1="195.193" y1="515.72" x2="194.473" y2="354.44"/>
	<line class="st2" x1="323.353" y1="515.72" x2="322.993" y2="352.16"/>
	<line class="st2" x1="339.553" y1="515.72" x2="339.193" y2="352.16"/>
	<line class="st2" x1="407.113" y1="515.72" x2="406.753" y2="352.16"/>
	<line class="st2" x1="374.113" y1="515.72" x2="373.393" y2="352.16"/>
	<polyline class="st2" points="423.433,352.16 423.553,388.4 339.313,388.52 	"/>
	<line class="st2" x1="390.313" y1="388.4" x2="390.073" y2="352.16"/>
	<line class="st2" x1="356.233" y1="388.52" x2="356.233" y2="352.16"/>
	<polyline class="st2" points="726.553,468.08 572.713,468.8 572.593,476.12 726.313,475.4 726.553,468.08 	"/>
	<line class="st2" x1="696.313" y1="368.6" x2="696.433" y2="468.32"/>
	<line class="st2" x1="703.273" y1="515.72" x2="703.153" y2="475.52"/>
	<line class="st2" x1="709.753" y1="515.72" x2="709.633" y2="475.52"/>
	<line class="st2" x1="715.993" y1="515.72" x2="715.873" y2="475.4"/>
	<line class="st2" x1="722.233" y1="475.4" x2="722.353" y2="515.72"/>
	<polyline class="st2" points="806.353,515.72 805.993,511.64 802.993,477.44 797.473,396.56 781.153,85.28 	"/>
	<line class="st2" x1="438.193" y1="158" x2="438.553" y2="85.28"/>
	<line class="st2" x1="570.793" y1="144.8" x2="572.953" y2="188.6"/>
	<line class="st2" x1="652.753" y1="230.12" x2="652.753" y2="230.12"/>
	<polyline class="st2" points="201.433,352.16 194.473,352.16 194.473,354.44 	"/>
	<line class="st2" x1="570.793" y1="144.8" x2="565.873" y2="85.28"/>
	<line class="st2" x1="746.113" y1="201.32" x2="732.913" y2="85.28"/>
	<path class="st5" d="M434.221,185.172c0.126-0.327,0.163-0.682,0.107-1.029"/>
	<path class="st5" d="M433.484,185.336c0.286-0.491,0.347-1.08,0.168-1.619"/>
	<line class="st5" x1="425.233" y1="181.76" x2="424.753" y2="185.72"/>
	<polyline class="st5" points="422.593,178.28 418.753,177.92 417.673,188.12 421.513,188.6 422.593,178.28 	"/>
	<line class="st5" x1="421.153" y1="187.52" x2="421.993" y2="179.24"/>
	<line class="st5" x1="419.113" y1="178.88" x2="418.273" y2="187.28"/>
	<line class="st5" x1="421.873" y1="185.36" x2="424.753" y2="186.68"/>
	<path class="st5" d="M424.732,186.539c1.337,1.313,3.216,1.917,5.068,1.631s3.46-1.43,4.339-3.085"/>
	<path class="st5" d="M424.886,185.679c1.098,1.289,2.722,2.01,4.415,1.959c1.693-0.051,3.271-0.867,4.289-2.22"/>
	<line class="st5" x1="418.633" y1="187.76" x2="420.673" y2="188"/>
	<line class="st5" x1="422.473" y1="186.92" x2="422.353" y2="188.36"/>
	<polyline class="st5" points="422.353,188.36 421.753,188.36 421.873,187.4 421.633,187.4 	"/>
	<line class="st5" x1="421.753" y1="186.8" x2="422.473" y2="186.92"/>
	<path class="st5" d="M420.631,187.867c0.128,0.032,0.264,0.002,0.367-0.081c0.103-0.083,0.16-0.21,0.155-0.342"/>
	<path class="st5" d="M418.286,187.118c-0.032,0.128-0.002,0.264,0.081,0.367c0.083,0.103,0.21,0.16,0.342,0.155"/>
	<line class="st5" x1="422.233" y1="181.52" x2="425.353" y2="180.8"/>
	<path class="st5" d="M434.241,184.134c-0.519-1.801-1.858-3.251-3.612-3.912s-3.716-0.456-5.295,0.553"/>
	<path class="st5" d="M433.706,183.772c-0.719-1.533-2.095-2.657-3.741-3.055c-1.646-0.398-3.384-0.027-4.724,1.008"/>
	<line class="st5" x1="421.633" y1="178.76" x2="419.593" y2="178.52"/>
	<path class="st5" d="M422.101,179.162c0.032-0.128,0.002-0.264-0.081-0.367c-0.083-0.103-0.21-0.16-0.342-0.155"/>
	<path class="st5" d="M419.635,178.413c-0.128-0.032-0.264-0.002-0.367,0.081c-0.103,0.083-0.16,0.21-0.155,0.342"/>
	<path class="st5" d="M451.393,179.204c0.013-0.298-0.217-0.55-0.515-0.564c-0.298-0.013-0.55,0.217-0.564,0.515
		c-0.013,0.298,0.217,0.55,0.515,0.564C451.127,179.733,451.379,179.502,451.393,179.204"/>
	<path class="st5" d="M451.633,179.215c0.019-0.43-0.314-0.795-0.744-0.814s-0.795,0.314-0.814,0.744s0.314,0.795,0.744,0.814
		S451.613,179.645,451.633,179.215"/>
	<line class="st5" x1="450.313" y1="179.24" x2="451.273" y2="179.24"/>
	<line class="st5" x1="450.793" y1="178.76" x2="450.793" y2="179.72"/>
	<path class="st5" d="M445.553,180.605c0.266,0.606,0.656,1.149,1.144,1.596"/>
	<path class="st5" d="M446.731,182.101c0.492,0.449,1.06,0.807,1.678,1.056"/>
	<path class="st5" d="M448.441,183.189c0.681,0.274,1.402,0.436,2.134,0.479"/>
	<path class="st5" d="M450.575,183.668c0.733,0.043,1.468-0.033,2.176-0.226"/>
	<path class="st5" d="M452.796,183.365c0.643-0.175,1.249-0.463,1.791-0.852"/>
	<path class="st5" d="M454.577,182.671c0.538-0.386,0.988-0.88,1.323-1.45"/>
	<path class="st5" d="M455.929,181.154c0.293-0.499,0.464-1.061,0.498-1.639"/>
	<path class="st5" d="M456.427,179.515c0.034-0.578-0.07-1.156-0.302-1.686"/>
	<path class="st5" d="M456.154,177.755c-0.266-0.606-0.656-1.149-1.144-1.596"/>
	<path class="st5" d="M454.976,176.26c-0.492-0.449-1.06-0.807-1.678-1.056"/>
	<path class="st5" d="M453.266,175.171c-0.681-0.274-1.402-0.436-2.134-0.479"/>
	<path class="st5" d="M451.132,174.692c-0.733-0.043-1.467,0.033-2.176,0.225"/>
	<path class="st5" d="M448.91,174.995c-0.643,0.175-1.249,0.463-1.791,0.852"/>
	<path class="st5" d="M447.13,175.689c-0.538,0.386-0.988,0.88-1.323,1.45"/>
	<path class="st5" d="M445.777,177.206c-0.293,0.499-0.464,1.061-0.498,1.639"/>
	<path class="st5" d="M445.28,178.845c-0.034,0.578,0.07,1.156,0.302,1.686"/>
	<path class="st5" d="M445.179,180.526c0.271,0.657,0.676,1.25,1.19,1.74"/>
	<path class="st5" d="M446.426,182.36c0.526,0.503,1.138,0.907,1.807,1.192"/>
	<path class="st5" d="M448.241,183.456c0.729,0.312,1.504,0.502,2.295,0.562"/>
	<path class="st5" d="M450.536,184.019c0.791,0.061,1.586-0.008,2.354-0.204"/>
	<path class="st5" d="M452.833,183.852c0.705-0.18,1.371-0.485,1.968-0.902"/>
	<path class="st5" d="M454.852,183.003c0.583-0.406,1.074-0.93,1.442-1.538"/>
	<path class="st5" d="M456.21,181.385c0.327-0.539,0.523-1.147,0.571-1.776"/>
	<path class="st5" d="M456.781,179.609c0.048-0.629-0.052-1.26-0.292-1.843"/>
	<path class="st5" d="M456.527,177.834c-0.271-0.657-0.676-1.25-1.19-1.74"/>
	<path class="st5" d="M455.401,176.12c-0.526-0.503-1.138-0.907-1.807-1.192"/>
	<path class="st5" d="M453.586,174.904c-0.729-0.312-1.504-0.502-2.295-0.562"/>
	<path class="st5" d="M451.291,174.341c-0.791-0.061-1.586,0.008-2.354,0.204"/>
	<path class="st5" d="M448.874,174.508c-0.705,0.18-1.371,0.485-1.968,0.902"/>
	<path class="st5" d="M446.855,175.357c-0.583,0.406-1.074,0.93-1.442,1.538"/>
	<path class="st5" d="M445.496,176.975c-0.327,0.539-0.523,1.147-0.571,1.776"/>
	<path class="st5" d="M444.925,178.751c-0.048,0.629,0.052,1.26,0.292,1.843"/>
	<path class="st5" d="M447.453,180.054c0.172,0.391,0.424,0.741,0.74,1.028"/>
	<path class="st5" d="M448.149,181.166c0.324,0.295,0.698,0.529,1.104,0.692"/>
	<path class="st5" d="M449.3,181.917c0.454,0.182,0.934,0.288,1.422,0.315"/>
	<path class="st5" d="M450.722,182.233c0.488,0.027,0.977-0.025,1.448-0.155"/>
	<path class="st5" d="M452.067,181.988c0.422-0.116,0.82-0.308,1.174-0.565"/>
	<path class="st5" d="M453.249,181.418c0.346-0.25,0.635-0.57,0.849-0.939"/>
	<path class="st5" d="M454.18,180.537c0.195-0.335,0.308-0.712,0.33-1.099"/>
	<path class="st5" d="M454.509,179.437c0.022-0.387-0.049-0.774-0.205-1.129"/>
	<path class="st5" d="M454.254,178.306c-0.172-0.391-0.424-0.741-0.74-1.028"/>
	<path class="st5" d="M453.558,177.314c-0.324-0.295-0.698-0.529-1.104-0.692"/>
	<path class="st5" d="M452.406,176.562c-0.454-0.182-0.934-0.288-1.422-0.315"/>
	<path class="st5" d="M450.985,176.247c-0.488-0.027-0.977,0.025-1.448,0.155"/>
	<path class="st5" d="M449.64,176.372c-0.422,0.116-0.82,0.308-1.174,0.565"/>
	<path class="st5" d="M448.458,176.942c-0.346,0.25-0.635,0.57-0.849,0.939"/>
	<path class="st5" d="M447.527,177.943c-0.195,0.335-0.308,0.712-0.33,1.099"/>
	<path class="st5" d="M447.197,179.043c-0.022,0.387,0.049,0.774,0.205,1.129"/>
	<line class="st0" x1="444.793" y1="178.76" x2="445.393" y2="173"/>
	<line class="st0" x1="456.793" y1="179.72" x2="457.393" y2="174.2"/>
	<line class="st0" x1="739.153" y1="336.44" x2="739.153" y2="328.28"/>
	<line class="st0" x1="739.153" y1="339.2" x2="740.593" y2="339.2"/>
	<line class="st0" x1="744.073" y1="339.2" x2="746.353" y2="339.2"/>
	<line class="st0" x1="749.833" y1="339.2" x2="752.113" y2="339.2"/>
	<line class="st0" x1="755.593" y1="339.2" x2="757.993" y2="339.2"/>
	<line class="st0" x1="761.473" y1="339.2" x2="763.753" y2="339.2"/>
	<line class="st0" x1="767.233" y1="339.2" x2="769.513" y2="339.2"/>
	<line class="st0" x1="772.993" y1="339.2" x2="775.273" y2="339.2"/>
	<polyline class="st0" points="778.753,339.2 780.193,339.2 779.953,336.44 	"/>
	<line class="st0" x1="365.713" y1="339.2" x2="362.473" y2="339.2"/>
	<line class="st0" x1="358.993" y1="339.2" x2="356.713" y2="339.2"/>
	<line class="st0" x1="353.233" y1="339.2" x2="350.833" y2="339.2"/>
	<line class="st0" x1="347.353" y1="339.2" x2="345.073" y2="339.2"/>
	<line class="st0" x1="341.593" y1="339.2" x2="339.313" y2="339.2"/>
	<line class="st0" x1="335.833" y1="339.2" x2="333.433" y2="339.2"/>
	<line class="st0" x1="329.953" y1="339.2" x2="327.673" y2="339.2"/>
	<line class="st0" x1="324.193" y1="339.2" x2="321.913" y2="339.2"/>
	<line class="st0" x1="318.433" y1="339.2" x2="316.153" y2="339.2"/>
	<line class="st0" x1="312.673" y1="339.2" x2="310.273" y2="339.2"/>
	<line class="st0" x1="306.793" y1="339.2" x2="304.513" y2="339.2"/>
	<line class="st0" x1="301.033" y1="339.2" x2="298.753" y2="339.2"/>
	<line class="st0" x1="295.273" y1="339.2" x2="292.873" y2="339.2"/>
	<line class="st0" x1="289.393" y1="339.2" x2="287.113" y2="339.2"/>
	<line class="st0" x1="283.633" y1="339.2" x2="281.353" y2="339.2"/>
	<line class="st0" x1="277.873" y1="339.2" x2="275.593" y2="339.2"/>
	<line class="st0" x1="272.113" y1="339.2" x2="268.753" y2="339.2"/>
	<line class="st0" x1="401.593" y1="245.72" x2="398.113" y2="245.72"/>
	<line class="st0" x1="394.633" y1="245.72" x2="392.233" y2="245.72"/>
	<polyline class="st0" points="388.753,245.72 385.393,245.72 382.633,247.88 	"/>
	<line class="st0" x1="379.993" y1="250.04" x2="378.073" y2="251.48"/>
	<line class="st0" x1="375.433" y1="253.64" x2="373.633" y2="255.08"/>
	<line class="st0" x1="370.873" y1="257.36" x2="369.073" y2="258.8"/>
	<line class="st0" x1="366.433" y1="260.96" x2="364.513" y2="262.4"/>
	<line class="st0" x1="361.873" y1="264.56" x2="360.073" y2="266"/>
	<line class="st0" x1="357.313" y1="268.16" x2="355.513" y2="269.6"/>
	<line class="st0" x1="352.873" y1="271.76" x2="350.953" y2="273.32"/>
	<line class="st0" x1="348.313" y1="275.48" x2="346.513" y2="276.92"/>
	<line class="st0" x1="343.753" y1="279.08" x2="341.953" y2="280.52"/>
	<line class="st0" x1="339.313" y1="282.68" x2="337.393" y2="284.12"/>
	<line class="st0" x1="334.753" y1="286.28" x2="332.953" y2="287.72"/>
	<line class="st0" x1="330.193" y1="289.88" x2="328.393" y2="291.44"/>
	<line class="st0" x1="325.753" y1="293.6" x2="323.833" y2="295.04"/>
	<line class="st0" x1="321.193" y1="297.2" x2="319.393" y2="298.64"/>
	<line class="st0" x1="316.633" y1="300.8" x2="314.833" y2="302.24"/>
	<line class="st0" x1="312.193" y1="304.4" x2="310.273" y2="305.84"/>
	<line class="st0" x1="307.633" y1="308" x2="305.833" y2="309.56"/>
	<line class="st0" x1="303.073" y1="311.72" x2="301.273" y2="313.16"/>
	<line class="st0" x1="298.633" y1="315.32" x2="296.713" y2="316.76"/>
	<line class="st0" x1="294.073" y1="318.92" x2="292.273" y2="320.36"/>
	<line class="st0" x1="289.513" y1="322.52" x2="287.713" y2="323.96"/>
	<line class="st0" x1="285.073" y1="326.24" x2="283.153" y2="327.68"/>
	<line class="st0" x1="280.513" y1="329.84" x2="278.713" y2="331.28"/>
	<line class="st0" x1="275.953" y1="333.44" x2="274.153" y2="334.88"/>
	<line class="st0" x1="271.513" y1="337.04" x2="268.753" y2="339.2"/>
	<line class="st0" x1="380.953" y1="322.88" x2="377.353" y2="322.88"/>
	<line class="st0" x1="373.873" y1="322.88" x2="371.473" y2="322.88"/>
	<line class="st0" x1="367.993" y1="322.88" x2="365.713" y2="322.88"/>
	<line class="st0" x1="362.233" y1="322.88" x2="359.953" y2="322.88"/>
	<line class="st0" x1="356.473" y1="322.88" x2="354.193" y2="322.88"/>
	<line class="st0" x1="350.713" y1="322.88" x2="348.313" y2="322.88"/>
	<line class="st0" x1="344.833" y1="322.88" x2="342.553" y2="322.88"/>
	<line class="st0" x1="339.073" y1="322.88" x2="336.793" y2="322.88"/>
	<line class="st0" x1="333.313" y1="322.88" x2="330.913" y2="322.88"/>
	<line class="st0" x1="327.433" y1="322.88" x2="325.153" y2="322.88"/>
	<line class="st0" x1="321.673" y1="322.88" x2="319.393" y2="322.88"/>
	<line class="st0" x1="315.913" y1="322.88" x2="313.633" y2="322.88"/>
	<line class="st0" x1="310.153" y1="322.88" x2="307.753" y2="322.88"/>
	<line class="st0" x1="304.273" y1="322.88" x2="301.993" y2="322.88"/>
	<line class="st0" x1="298.513" y1="322.88" x2="296.233" y2="322.88"/>
	<line class="st0" x1="292.753" y1="322.88" x2="289.153" y2="322.88"/>
	<line class="st0" x1="627.193" y1="347.72" x2="628.753" y2="347.6"/>
	<polyline class="st0" points="632.113,346.88 633.073,346.64 634.273,346.04 	"/>
	<polyline class="st0" points="637.273,344.36 638.233,343.88 639.193,343.04 	"/>
	<polyline class="st0" points="641.593,340.52 642.313,339.56 642.913,338.6 	"/>
	<polyline class="st0" points="644.473,335.6 644.953,334.28 645.193,333.32 	"/>
	<polyline class="st0" points="645.793,329.96 645.913,328.4 646.033,329.96 	"/>
	<polyline class="st0" points="646.513,333.32 646.753,334.28 647.353,335.6 	"/>
	<polyline class="st0" points="648.913,338.72 649.393,339.56 650.233,340.52 	"/>
	<polyline class="st0" points="652.633,343.04 653.473,343.88 654.433,344.48 	"/>
	<polyline class="st0" points="657.433,346.04 658.753,346.64 659.713,346.88 	"/>
	<line class="st0" x1="663.073" y1="347.6" x2="664.513" y2="347.72"/>
	<line class="st0" x1="424.033" y1="252.08" x2="423.073" y2="252.2"/>
	<line class="st0" x1="435.793" y1="321.92" x2="436.753" y2="321.8"/>
	<polyline class="st0" points="749.833,254 749.473,251.12 762.793,245.72 	"/>
	<line class="st0" x1="428.353" y1="278.12" x2="423.553" y2="252.2"/>
	<line class="st0" x1="432.073" y1="299" x2="436.273" y2="321.92"/>
	<polyline class="st0" points="493.753,360.08 596.113,358.88 496.753,387.68 	"/>
	<line class="st0" x1="433.273" y1="298.52" x2="450.553" y2="295.28"/>
	<line class="st0" x1="433.153" y1="297.92" x2="433.393" y2="299.12"/>
	<line class="st0" x1="450.673" y1="296" x2="450.433" y2="294.68"/>
	<line class="st0" x1="423.793" y1="251.12" x2="422.833" y2="251.36"/>
	<line class="st0" x1="626.593" y1="329.36" x2="626.593" y2="346.76"/>
	<line class="st0" x1="665.233" y1="329.36" x2="665.233" y2="346.76"/>
	<line class="st0" x1="625.873" y1="329.36" x2="627.193" y2="329.36"/>
	<line class="st0" x1="625.873" y1="346.76" x2="627.193" y2="346.76"/>
	<line class="st0" x1="664.513" y1="346.76" x2="665.833" y2="346.76"/>
	<line class="st0" x1="664.513" y1="329.36" x2="665.833" y2="329.36"/>
	<line class="st0" x1="625.873" y1="328.4" x2="625.273" y2="328.4"/>
	<line class="st0" x1="625.873" y1="327.2" x2="625.273" y2="327.2"/>
	<line class="st0" x1="666.433" y1="329.72" x2="666.433" y2="328.4"/>
	<line class="st0" x1="666.433" y1="327.2" x2="666.433" y2="324.44"/>
	<line class="st0" x1="665.833" y1="328.4" x2="666.433" y2="328.4"/>
	<line class="st0" x1="665.833" y1="327.2" x2="666.433" y2="327.2"/>
	<line class="st0" x1="463.633" y1="339.2" x2="545.593" y2="339.2"/>
	<line class="st0" x1="605.593" y1="339.2" x2="687.433" y2="339.2"/>
	<polyline class="st0" points="459.313,204.56 457.153,204.32 457.393,202.52 459.433,202.64 	"/>
	<line class="st0" x1="464.833" y1="251.72" x2="465.913" y2="251.72"/>
	<line class="st0" x1="520.033" y1="306.32" x2="521.113" y2="306.32"/>
	<line class="st0" x1="520.033" y1="286.4" x2="521.113" y2="286.4"/>
	<line class="st0" x1="520.033" y1="271.64" x2="521.113" y2="271.64"/>
	<polyline class="st0" points="575.233,252.56 575.233,251.72 576.313,251.72 576.313,252.56 	"/>
	<line class="st0" x1="575.233" y1="271.64" x2="576.313" y2="271.64"/>
	<line class="st0" x1="575.233" y1="286.4" x2="576.313" y2="286.4"/>
	<polyline class="st0" points="575.233,305.48 575.233,306.32 576.313,306.32 576.313,305.48 	"/>
	<polyline class="st0" points="630.553,305.48 630.553,306.32 631.633,306.32 631.633,305.48 	"/>
	<polyline class="st0" points="630.553,252.56 630.553,251.72 631.633,251.72 631.633,252.56 	"/>
	<polyline class="st0" points="685.753,252.56 685.753,251.72 686.833,251.72 686.833,252.56 	"/>
	<line class="st0" x1="685.753" y1="271.64" x2="686.833" y2="271.64"/>
	<line class="st0" x1="685.753" y1="286.4" x2="686.833" y2="286.4"/>
	<polyline class="st0" points="685.753,305.48 685.753,306.32 686.833,306.32 686.833,305.48 	"/>
	<polyline class="st0" points="741.193,252.56 741.193,251.72 741.313,251.72 	"/>
	<polyline class="st0" points="521.113,303.2 524.593,303.2 524.593,303.92 544.273,303.92 544.273,303.2 551.593,303.2 
		551.593,303.92 571.393,303.92 571.393,303.2 575.233,303.2 	"/>
	<polyline class="st0" points="521.113,254.84 524.593,254.84 524.593,254.12 544.273,254.12 544.273,254.84 551.593,254.84 
		551.593,254.12 571.393,254.12 571.393,254.84 575.233,254.84 	"/>
	<polyline class="st0" points="644.473,301.88 646.033,301.88 646.033,302.72 671.113,302.72 671.113,301.88 672.673,301.88 	"/>
	<polyline class="st0" points="631.633,256.76 632.113,256.76 632.113,256.28 640.153,256.28 640.153,256.76 644.473,256.76 
		644.473,256.16 	"/>
	<polyline class="st0" points="644.473,256.16 646.033,256.16 646.033,255.44 671.113,255.44 671.113,256.16 672.673,256.16 
		672.673,256.76 676.873,256.76 676.873,256.28 685.033,256.28 685.033,256.76 685.753,256.76 	"/>
	<polyline class="st0" points="686.833,256.52 702.193,256.52 702.193,255.8 725.833,255.8 725.833,256.52 741.193,256.52 	"/>
	<line class="st0" x1="578.833" y1="300.08" x2="601.633" y2="300.08"/>
	<line class="st0" x1="578.833" y1="298.64" x2="601.633" y2="298.64"/>
	<line class="st0" x1="604.993" y1="300.08" x2="627.793" y2="300.08"/>
	<line class="st0" x1="604.993" y1="298.64" x2="627.793" y2="298.64"/>
	<line class="st0" x1="524.593" y1="254.84" x2="571.393" y2="254.84"/>
	<line class="st0" x1="524.593" y1="303.2" x2="575.233" y2="303.2"/>
	<line class="st0" x1="646.393" y1="256.16" x2="670.753" y2="256.16"/>
	<line class="st0" x1="702.193" y1="256.52" x2="725.833" y2="256.52"/>
	<line class="st0" x1="646.393" y1="301.88" x2="670.753" y2="301.88"/>
	<polyline class="st0" points="633.073,256.64 632.113,256.64 640.153,256.64 	"/>
	<line class="st0" x1="676.873" y1="256.64" x2="685.033" y2="256.64"/>
	<polyline class="st0" points="632.113,301.76 632.113,301.4 640.153,301.4 	"/>
	<line class="st0" x1="676.873" y1="301.4" x2="685.033" y2="301.4"/>
	<line class="st0" x1="429.073" y1="278.96" x2="429.073" y2="279.44"/>
	<line class="st0" x1="722.353" y1="242.48" x2="715.153" y2="242.48"/>
	<line class="st0" x1="712.273" y1="242.48" x2="712.273" y2="242.48"/>
	<line class="st0" x1="709.393" y1="242.48" x2="697.753" y2="242.48"/>
	<line class="st0" x1="694.873" y1="242.48" x2="694.873" y2="242.48"/>
	<line class="st0" x1="691.993" y1="242.48" x2="680.473" y2="242.48"/>
	<line class="st0" x1="677.473" y1="242.48" x2="677.473" y2="242.48"/>
	<line class="st0" x1="674.593" y1="242.48" x2="663.073" y2="242.48"/>
	<line class="st0" x1="660.193" y1="242.48" x2="660.193" y2="242.48"/>
	<line class="st0" x1="657.193" y1="242.48" x2="645.673" y2="242.48"/>
	<line class="st0" x1="642.793" y1="242.48" x2="642.793" y2="242.48"/>
	<line class="st0" x1="639.913" y1="242.48" x2="628.273" y2="242.48"/>
	<line class="st0" x1="625.393" y1="242.48" x2="625.393" y2="242.48"/>
	<line class="st0" x1="622.513" y1="242.48" x2="610.873" y2="242.48"/>
	<line class="st0" x1="607.993" y1="242.48" x2="607.993" y2="242.48"/>
	<line class="st0" x1="605.113" y1="242.48" x2="593.473" y2="242.48"/>
	<line class="st0" x1="590.593" y1="242.48" x2="590.593" y2="242.48"/>
	<line class="st0" x1="587.713" y1="242.48" x2="576.073" y2="242.48"/>
	<line class="st0" x1="573.193" y1="242.48" x2="573.193" y2="242.48"/>
	<polyline class="st0" points="570.313,242.48 563.113,242.48 563.113,236.24 	"/>
	<line class="st0" x1="563.113" y1="233.36" x2="563.113" y2="233.36"/>
	<line class="st0" x1="563.113" y1="230.48" x2="563.113" y2="218.84"/>
	<line class="st0" x1="563.113" y1="215.96" x2="563.113" y2="215.96"/>
	<line class="st0" x1="563.113" y1="213.08" x2="563.113" y2="201.56"/>
	<line class="st0" x1="563.113" y1="198.56" x2="563.113" y2="198.56"/>
	<line class="st0" x1="563.113" y1="195.68" x2="563.113" y2="184.16"/>
	<line class="st0" x1="563.113" y1="181.28" x2="563.113" y2="181.28"/>
	<line class="st0" x1="563.113" y1="178.28" x2="563.113" y2="166.76"/>
	<line class="st0" x1="563.113" y1="163.88" x2="563.113" y2="163.88"/>
	<line class="st0" x1="563.113" y1="161" x2="563.113" y2="149.36"/>
	<line class="st0" x1="563.113" y1="146.48" x2="563.113" y2="146.48"/>
	<line class="st0" x1="563.113" y1="143.6" x2="563.113" y2="131.96"/>
	<line class="st0" x1="563.113" y1="129.08" x2="563.113" y2="129.08"/>
	<line class="st0" x1="563.113" y1="126.2" x2="563.113" y2="114.56"/>
	<line class="st0" x1="563.113" y1="111.68" x2="563.113" y2="111.68"/>
	<line class="st0" x1="563.113" y1="108.8" x2="563.113" y2="97.28"/>
	<line class="st0" x1="563.113" y1="94.28" x2="563.113" y2="94.28"/>
	<line class="st0" x1="563.113" y1="91.4" x2="563.113" y2="85.28"/>
	<line class="st0" x1="464.833" y1="286.4" x2="451.873" y2="286.4"/>
	<line class="st0" x1="464.833" y1="286.04" x2="451.993" y2="286.04"/>
	<line class="st0" x1="464.833" y1="271.64" x2="449.353" y2="271.64"/>
	<line class="st0" x1="464.833" y1="272" x2="451.993" y2="272"/>
	<line class="st0" x1="449.353" y1="271.64" x2="449.353" y2="286.4"/>
	<line class="st0" x1="451.993" y1="271.64" x2="451.993" y2="286.4"/>
	<line class="st0" x1="449.353" y1="286.4" x2="451.873" y2="286.4"/>
	<polyline class="st0" points="449.353,271.64 464.833,279.08 449.353,286.4 	"/>
	<line class="st0" x1="727.513" y1="305.12" x2="727.513" y2="306.92"/>
	<line class="st0" x1="712.633" y1="305.12" x2="712.633" y2="306.92"/>
	<polyline class="st0" points="727.633,305.48 741.193,305.48 741.193,306.32 727.633,306.32 727.633,305.48 	"/>
	<line class="st1" x1="712.633" y1="301.52" x2="712.633" y2="290.84"/>
	<line class="st1" x1="727.513" y1="301.52" x2="727.513" y2="290.84"/>
	<line class="st0" x1="712.633" y1="306.92" x2="727.513" y2="306.92"/>
	<polyline class="st0" points="712.633,294.08 720.073,306.92 727.513,294.08 	"/>
	<line class="st0" x1="535.393" y1="306.92" x2="535.393" y2="299.36"/>
	<line class="st0" x1="535.393" y1="296.36" x2="535.393" y2="296.36"/>
	<line class="st0" x1="535.393" y1="293.48" x2="535.393" y2="281.96"/>
	<line class="st0" x1="535.393" y1="279.08" x2="535.393" y2="279.08"/>
	<line class="st0" x1="535.393" y1="276.08" x2="535.393" y2="264.56"/>
	<line class="st0" x1="535.393" y1="261.68" x2="535.393" y2="261.68"/>
	<line class="st0" x1="535.393" y1="258.8" x2="535.393" y2="251.12"/>
	<line class="st0" x1="591.313" y1="306.92" x2="591.313" y2="299.36"/>
	<line class="st0" x1="591.313" y1="296.36" x2="591.313" y2="296.36"/>
	<line class="st0" x1="591.313" y1="293.48" x2="591.313" y2="281.96"/>
	<line class="st0" x1="591.313" y1="279.08" x2="591.313" y2="279.08"/>
	<line class="st0" x1="591.313" y1="276.08" x2="591.313" y2="264.56"/>
	<line class="st0" x1="591.313" y1="261.68" x2="591.313" y2="261.68"/>
	<line class="st0" x1="591.313" y1="258.8" x2="591.313" y2="251.12"/>
	<line class="st0" x1="654.193" y1="306.92" x2="654.193" y2="299.36"/>
	<line class="st0" x1="654.193" y1="296.36" x2="654.193" y2="296.36"/>
	<line class="st0" x1="654.193" y1="293.48" x2="654.193" y2="281.96"/>
	<line class="st0" x1="654.193" y1="279.08" x2="654.193" y2="279.08"/>
	<line class="st0" x1="654.193" y1="276.08" x2="654.193" y2="264.56"/>
	<line class="st0" x1="654.193" y1="261.68" x2="654.193" y2="261.68"/>
	<line class="st0" x1="654.193" y1="258.8" x2="654.193" y2="251.12"/>
	<line class="st0" x1="720.073" y1="306.92" x2="720.073" y2="299.36"/>
	<line class="st0" x1="720.073" y1="296.36" x2="720.073" y2="296.36"/>
	<line class="st0" x1="720.073" y1="293.48" x2="720.073" y2="281.96"/>
	<line class="st0" x1="720.073" y1="279.08" x2="720.073" y2="279.08"/>
	<line class="st0" x1="720.073" y1="276.08" x2="720.073" y2="264.56"/>
	<line class="st0" x1="720.073" y1="261.68" x2="720.073" y2="261.68"/>
	<line class="st0" x1="720.073" y1="258.8" x2="720.073" y2="251.12"/>
	<line class="st0" x1="483.673" y1="306.92" x2="483.673" y2="299.36"/>
	<line class="st0" x1="483.673" y1="296.36" x2="483.673" y2="296.36"/>
	<line class="st0" x1="483.673" y1="293.48" x2="483.673" y2="281.96"/>
	<line class="st0" x1="483.673" y1="279.08" x2="483.673" y2="279.08"/>
	<line class="st0" x1="483.673" y1="276.08" x2="483.673" y2="264.56"/>
	<line class="st0" x1="483.673" y1="261.68" x2="483.673" y2="261.68"/>
	<line class="st0" x1="483.673" y1="258.8" x2="483.673" y2="251.12"/>
	<path class="st0" d="M486.553,309.62c0-1.557-1.263-2.82-2.82-2.82c-1.557,0-2.82,1.263-2.82,2.82c0,1.557,1.263,2.82,2.82,2.82
		C485.291,312.44,486.553,311.177,486.553,309.62"/>
	<line class="st0" x1="482.833" y1="311.12" x2="482.833" y2="308"/>
	<polyline class="st0" points="484.873,308 483.313,309.56 482.833,309.56 	"/>
	<line class="st0" x1="483.313" y1="309.56" x2="484.873" y2="311.12"/>
	<path class="st0" d="M538.273,309.62c0-1.557-1.263-2.82-2.82-2.82s-2.82,1.263-2.82,2.82c0,1.557,1.263,2.82,2.82,2.82
		S538.273,311.177,538.273,309.62"/>
	<polyline class="st0" points="534.553,308 534.553,311.12 536.593,311.12 	"/>
	<path class="st0" d="M594.073,309.62c0-1.557-1.263-2.82-2.82-2.82s-2.82,1.263-2.82,2.82c0,1.557,1.263,2.82,2.82,2.82
		S594.073,311.177,594.073,309.62"/>
	<polyline class="st0" points="590.353,311.12 590.353,308 591.433,310.16 592.513,308 592.513,311.12 	"/>
	<path class="st0" d="M657.073,309.62c0-1.557-1.263-2.82-2.82-2.82s-2.82,1.263-2.82,2.82c0,1.557,1.263,2.82,2.82,2.82
		S657.073,311.177,657.073,309.62"/>
	<polyline class="st0" points="653.353,311.12 653.353,308 655.393,311.12 655.393,308 	"/>
	<path class="st0" d="M722.953,309.62c0-1.557-1.263-2.82-2.82-2.82s-2.82,1.263-2.82,2.82c0,1.557,1.263,2.82,2.82,2.82
		S722.953,311.177,722.953,309.62"/>
	<polyline class="st0" points="719.233,311.12 719.233,308 721.273,308 721.273,311.12 719.233,311.12 	"/>
	<path class="st0" d="M449.473,279.02c0-1.557-1.263-2.82-2.82-2.82c-1.557,0-2.82,1.263-2.82,2.82c0,1.557,1.263,2.82,2.82,2.82
		C448.211,281.84,449.473,280.577,449.473,279.02"/>
	<polyline class="st0" points="445.753,280.04 446.233,280.52 447.313,280.52 447.793,280.04 447.793,277.4 	"/>
	<line class="st0" x1="520.033" y1="287.12" x2="521.113" y2="286.4"/>
	<line class="st0" x1="521.113" y1="287.12" x2="520.033" y2="286.4"/>
	<polyline class="st0" points="465.913,286.4 465.913,287.12 464.833,287.12 464.833,286.4 465.913,286.4 464.833,287.12 	"/>
	<line class="st0" x1="465.913" y1="287.12" x2="464.833" y2="286.4"/>
	<polyline class="st0" points="576.313,286.4 576.313,287.12 575.233,287.12 575.233,286.4 576.313,286.4 575.233,287.12 	"/>
	<line class="st0" x1="576.313" y1="287.12" x2="575.233" y2="286.4"/>
	<polyline class="st0" points="631.633,286.4 631.633,287.12 630.553,287.12 630.553,286.4 631.633,286.4 630.553,287.12 	"/>
	<line class="st0" x1="631.633" y1="287.12" x2="630.553" y2="286.4"/>
	<polyline class="st0" points="686.833,286.4 686.833,287.12 685.753,287.12 685.753,286.4 686.833,286.4 	"/>
	<polyline class="st0" points="686.833,288.32 685.753,287.12 686.833,287.12 686.833,288.32 685.753,288.32 685.753,287.12 	"/>
	<line class="st0" x1="686.833" y1="287.12" x2="685.753" y2="288.32"/>
	<line class="st0" x1="685.753" y1="287.12" x2="686.833" y2="286.4"/>
	<line class="st0" x1="686.833" y1="287.12" x2="685.753" y2="286.4"/>
	<polyline class="st0" points="465.913,271.64 465.913,270.92 464.833,270.92 464.833,271.64 465.913,271.64 464.833,270.92 	"/>
	<line class="st0" x1="465.913" y1="270.92" x2="464.833" y2="271.64"/>
	<line class="st0" x1="520.153" y1="271.64" x2="520.033" y2="271.64"/>
	<polyline class="st0" points="521.113,271.64 521.113,270.92 520.033,270.92 520.033,271.64 521.113,271.64 520.033,270.92 	"/>
	<line class="st0" x1="521.113" y1="270.92" x2="520.033" y2="271.64"/>
	<line class="st0" x1="575.473" y1="271.64" x2="575.233" y2="271.64"/>
	<polyline class="st0" points="576.313,271.64 576.313,270.92 575.233,270.92 575.233,271.64 576.313,271.64 575.233,270.92 	"/>
	<line class="st0" x1="576.313" y1="270.92" x2="575.233" y2="271.64"/>
	<line class="st0" x1="630.673" y1="271.64" x2="630.553" y2="271.64"/>
	<polyline class="st0" points="631.633,271.64 631.633,270.92 630.553,270.92 630.553,271.64 631.633,271.64 630.553,270.92 	"/>
	<line class="st0" x1="631.633" y1="270.92" x2="630.553" y2="271.64"/>
	<line class="st0" x1="685.993" y1="271.64" x2="685.753" y2="271.64"/>
	<polyline class="st0" points="686.833,271.64 686.833,270.92 685.753,270.92 685.753,271.64 686.833,271.64 685.753,270.92 	"/>
	<line class="st0" x1="686.833" y1="270.92" x2="685.753" y2="271.64"/>
	<line class="st0" x1="631.633" y1="286.4" x2="631.633" y2="252.56"/>
	<line class="st0" x1="356.833" y1="240.32" x2="356.593" y2="239.96"/>
	<line class="st0" x1="521.593" y1="303.2" x2="521.473" y2="288.56"/>
	<line class="st0" x1="521.473" y1="287.96" x2="521.473" y2="287.36"/>
	<line class="st0" x1="431.713" y1="299.12" x2="431.473" y2="298.16"/>
	<line class="st0" x1="432.553" y1="299" x2="432.433" y2="298.04"/>
	<line class="st0" x1="436.753" y1="321.8" x2="436.993" y2="322.88"/>
	<polyline class="st0" points="431.713,299.12 435.793,321.92 436.033,322.88 	"/>
	<line class="st0" x1="432.553" y1="299" x2="436.753" y2="321.8"/>
	<line class="st0" x1="423.073" y1="252.2" x2="422.833" y2="251.36"/>
	<line class="st0" x1="424.033" y1="252.08" x2="423.793" y2="251.12"/>
	<line class="st0" x1="423.073" y1="252.2" x2="427.873" y2="278.24"/>
	<line class="st0" x1="424.033" y1="252.08" x2="428.833" y2="278.12"/>
	<line class="st0" x1="433.153" y1="297.92" x2="450.433" y2="294.68"/>
	<line class="st0" x1="433.393" y1="299.12" x2="450.673" y2="296"/>
	<line class="st0" x1="625.873" y1="329.36" x2="625.873" y2="346.76"/>
	<line class="st0" x1="627.193" y1="346.76" x2="627.193" y2="329.36"/>
	<line class="st0" x1="664.513" y1="329.36" x2="664.513" y2="346.76"/>
	<line class="st0" x1="665.833" y1="329.36" x2="665.833" y2="346.76"/>
	<line class="st0" x1="539.953" y1="188.96" x2="539.593" y2="203.12"/>
	<line class="st0" x1="539.593" y1="188.96" x2="539.233" y2="203.12"/>
	<line class="st0" x1="539.233" y1="188.96" x2="538.873" y2="203.12"/>
	<line class="st0" x1="539.593" y1="203.72" x2="538.873" y2="203.72"/>
	<line class="st0" x1="539.593" y1="203.12" x2="538.873" y2="203.12"/>
	<line class="st0" x1="539.953" y1="188.36" x2="539.233" y2="188.36"/>
	<line class="st0" x1="539.953" y1="188.96" x2="539.233" y2="188.96"/>
	<line class="st0" x1="538.873" y1="203.72" x2="538.873" y2="203.12"/>
	<line class="st0" x1="539.593" y1="203.72" x2="539.593" y2="203.12"/>
	<line class="st0" x1="539.233" y1="188.96" x2="539.233" y2="188.36"/>
	<line class="st0" x1="539.953" y1="188.96" x2="539.953" y2="188.36"/>
	<line class="st0" x1="751.273" y1="313.88" x2="745.513" y2="264.08"/>
	<line class="st0" x1="750.913" y1="263.48" x2="756.673" y2="313.28"/>
	<polyline class="st0" points="686.833,270.92 685.753,269.72 686.833,269.72 686.833,270.92 685.753,270.92 685.753,269.72 	"/>
	<line class="st0" x1="686.833" y1="269.72" x2="685.753" y2="270.92"/>
	<polyline class="st0" points="686.833,252.92 685.753,251.72 686.833,251.72 686.833,252.92 685.753,252.92 685.753,251.72 	"/>
	<line class="st0" x1="686.833" y1="251.72" x2="685.753" y2="252.92"/>
	<polyline class="st0" points="631.633,252.92 630.553,251.72 631.633,251.72 631.633,252.92 630.553,252.92 630.553,251.72 	"/>
	<line class="st0" x1="631.633" y1="251.72" x2="630.553" y2="252.92"/>
	<polyline class="st0" points="576.313,252.92 575.233,251.72 576.313,251.72 576.313,252.92 575.233,252.92 575.233,251.72 	"/>
	<line class="st0" x1="576.313" y1="251.72" x2="575.233" y2="252.92"/>
	<polyline class="st0" points="521.113,252.92 520.033,251.72 521.113,251.72 521.113,252.92 520.033,252.92 520.033,251.72 	"/>
	<line class="st0" x1="521.113" y1="251.72" x2="520.033" y2="252.92"/>
	<polyline class="st0" points="465.913,252.92 464.833,251.72 465.913,251.72 465.913,252.92 464.833,252.92 464.833,251.72 	"/>
	<line class="st0" x1="465.913" y1="251.72" x2="464.833" y2="252.92"/>
	<polyline class="st0" points="631.633,270.92 630.553,269.72 631.633,269.72 631.633,270.92 630.553,270.92 630.553,269.72 	"/>
	<line class="st0" x1="631.633" y1="269.72" x2="630.553" y2="270.92"/>
	<polyline class="st0" points="576.313,270.92 575.233,269.72 576.313,269.72 576.313,270.92 575.233,270.92 575.233,269.72 	"/>
	<line class="st0" x1="576.313" y1="269.72" x2="575.233" y2="270.92"/>
	<polyline class="st0" points="521.113,270.92 520.033,269.72 521.113,269.72 521.113,270.92 520.033,270.92 520.033,269.72 	"/>
	<line class="st0" x1="521.113" y1="269.72" x2="520.033" y2="270.92"/>
	<polyline class="st0" points="465.913,270.92 464.833,269.72 465.913,269.72 465.913,270.92 464.833,270.92 464.833,269.72 	"/>
	<line class="st0" x1="465.913" y1="269.72" x2="464.833" y2="270.92"/>
	<polyline class="st0" points="631.633,288.32 630.553,287.12 631.633,287.12 631.633,288.32 630.553,288.32 630.553,287.12 	"/>
	<line class="st0" x1="631.633" y1="287.12" x2="630.553" y2="288.32"/>
	<polyline class="st0" points="576.433,288.32 575.233,287.12 576.433,287.12 576.433,288.32 575.233,288.32 575.233,287.12 	"/>
	<line class="st0" x1="576.433" y1="287.12" x2="575.233" y2="288.32"/>
	<polyline class="st0" points="521.113,288.32 520.033,287.12 521.113,287.12 521.113,288.32 520.033,288.32 520.033,287.12 	"/>
	<line class="st0" x1="521.113" y1="287.12" x2="520.033" y2="288.32"/>
	<polyline class="st0" points="465.913,288.32 464.833,287.12 465.913,287.12 465.913,288.32 464.833,288.32 464.833,287.12 	"/>
	<line class="st0" x1="465.913" y1="287.12" x2="464.833" y2="288.32"/>
	<polyline class="st0" points="686.833,306.32 685.753,305.12 686.833,305.12 686.833,306.32 685.753,306.32 685.753,305.12 	"/>
	<line class="st0" x1="686.833" y1="305.12" x2="685.753" y2="306.32"/>
	<polyline class="st0" points="631.633,306.32 630.553,305.12 631.633,305.12 631.633,306.32 630.553,306.32 630.553,305.12 	"/>
	<line class="st0" x1="631.633" y1="305.12" x2="630.553" y2="306.32"/>
	<polyline class="st0" points="576.313,306.32 575.233,305.12 576.313,305.12 576.313,306.32 575.233,306.32 575.233,305.12 	"/>
	<line class="st0" x1="576.313" y1="305.12" x2="575.233" y2="306.32"/>
	<polyline class="st0" points="521.113,306.32 520.033,305.12 521.113,305.12 521.113,306.32 520.033,306.32 520.033,305.12 	"/>
	<line class="st0" x1="521.113" y1="305.12" x2="520.033" y2="306.32"/>
	<polyline class="st0" points="465.913,306.32 464.833,305.12 465.913,305.12 465.913,306.32 464.833,306.32 464.833,305.12 	"/>
	<line class="st0" x1="465.913" y1="305.12" x2="464.833" y2="306.32"/>
	<line class="st0" x1="464.833" y1="271.64" x2="449.353" y2="271.64"/>
	<line class="st0" x1="464.833" y1="272" x2="451.993" y2="272"/>
	<line class="st0" x1="449.353" y1="271.64" x2="449.353" y2="286.4"/>
	<line class="st0" x1="451.993" y1="271.64" x2="451.993" y2="286.4"/>
	<line class="st0" x1="449.353" y1="286.4" x2="464.833" y2="286.4"/>
	<line class="st0" x1="451.993" y1="286.04" x2="464.833" y2="286.04"/>
	<polyline class="st0" points="449.353,271.64 464.833,278.96 449.353,286.4 	"/>
</g>
</svg>
